<svg width="298" height="44" viewBox="0 0 298 44" fill="none" xmlns="http://www.w3.org/2000/svg">
<path d="M21.3318 38.8313H17.9935L17.4772 34.6856H0.510696V11.4694H5.22549V30.6394H13.5195V11.4694H18.2345V30.6394H21.3318V38.8313ZM23.9817 11.4694H38.2638V15.5156H28.6965V20.9217H37.4034V24.9681H28.6965V30.6394H38.4358V34.6856H23.9817V11.4694ZM55.4711 24.9681H46.6609V34.6856H41.9462V11.4694H46.6609V20.9217H55.4711V11.4694H60.1861V34.6856H55.4711V24.9681ZM81.4545 15.5156H74.4337V34.6856H69.7189V15.5156H62.6638V11.4694H81.4545V15.5156ZM83.8979 11.7016C84.8616 11.5247 85.9225 11.3865 87.0812 11.287C88.2398 11.1875 89.3927 11.1377 90.54 11.1377C91.733 11.1377 92.9319 11.2317 94.1363 11.4197C95.3408 11.6076 96.4249 11.9835 97.3884 12.5473C98.3521 13.1112 99.1379 13.8961 99.746 14.9022C100.354 15.9081 100.658 17.2182 100.658 18.8323C100.658 20.2917 100.394 21.5242 99.8665 22.5303C99.3386 23.5364 98.6388 24.3599 97.767 25.0011C96.8953 25.6423 95.903 26.1067 94.7902 26.3941C93.6774 26.6816 92.5245 26.8253 91.3314 26.8253C91.2169 26.8253 91.0332 26.8253 90.7808 26.8253C90.5284 26.8253 90.2645 26.8198 89.9892 26.8087C89.7139 26.7977 89.4444 26.7811 89.1805 26.759C88.9167 26.7368 88.7274 26.7147 88.6125 26.6926V34.6856H83.8979V11.7016ZM90.9184 15.0513C90.4596 15.0513 90.0237 15.0679 89.6108 15.1012C89.1978 15.1342 88.8651 15.1729 88.6125 15.2171V22.7459C88.7045 22.768 88.8423 22.7901 89.0256 22.8122C89.2092 22.8343 89.4043 22.8509 89.6108 22.862C89.8172 22.873 90.0179 22.8786 90.213 22.8786C90.4079 22.8786 90.5513 22.8786 90.6432 22.8786C91.2626 22.8786 91.8762 22.8233 92.4844 22.7127C93.0923 22.6022 93.6373 22.3976 94.1191 22.0991C94.6008 21.8006 94.9851 21.3861 95.272 20.8554C95.5588 20.3247 95.7021 19.6282 95.7021 18.766C95.7021 18.0363 95.5644 17.4338 95.2893 16.9584C95.0138 16.483 94.6525 16.1016 94.2051 15.8141C93.7578 15.5267 93.2473 15.3277 92.6736 15.2171C92.1 15.1066 91.5151 15.0513 90.9184 15.0513Z" fill="#144C7F"/>
<path d="M163.929 15.5153H155.257V34.6854H150.407V11.4692H168.778V34.6854H163.929V15.5153ZM173.025 11.7014C174.016 11.5245 175.108 11.3863 176.299 11.2868C177.491 11.1873 178.677 11.1374 179.856 11.1374C181.084 11.1374 182.316 11.2315 183.555 11.4195C184.794 11.6074 185.909 11.9833 186.9 12.547C187.891 13.1109 188.699 13.8958 189.325 14.9019C189.95 15.9079 190.263 17.2179 190.263 18.832C190.263 20.2914 189.991 21.5239 189.449 22.53C188.906 23.5361 188.186 24.3597 187.29 25.0009C186.393 25.642 185.372 26.1065 184.228 26.3938C183.083 26.6814 181.898 26.825 180.671 26.825C180.553 26.825 180.364 26.825 180.104 26.825C179.845 26.825 179.573 26.8196 179.29 26.8084C179.007 26.7975 178.73 26.7809 178.458 26.7588C178.187 26.7365 177.992 26.7144 177.874 26.6923V34.6854H173.025V11.7014ZM180.246 15.0511C179.774 15.0511 179.326 15.0677 178.901 15.1009C178.476 15.134 178.134 15.1727 177.874 15.2169V22.7456C177.969 22.7677 178.11 22.7898 178.299 22.8119C178.488 22.834 178.689 22.8506 178.901 22.8617C179.113 22.8727 179.319 22.8784 179.52 22.8784C179.721 22.8784 179.868 22.8784 179.963 22.8784C180.6 22.8784 181.231 22.823 181.856 22.7124C182.482 22.6019 183.042 22.3973 183.538 22.0988C184.033 21.8003 184.428 21.3859 184.723 20.8552C185.018 20.3245 185.166 19.628 185.166 18.7657C185.166 18.036 185.024 17.4335 184.741 16.9581C184.458 16.4827 184.086 16.1014 183.626 15.8138C183.166 15.5265 182.641 15.3275 182.051 15.2169C181.461 15.1064 180.859 15.0511 180.246 15.0511ZM192.103 23.0773C192.103 19.2079 193.012 16.2284 194.829 14.139C196.646 12.0495 199.241 11.0049 202.616 11.0049C204.386 11.0049 205.931 11.2923 207.253 11.8671C208.574 12.442 209.671 13.2601 210.544 14.3214C211.418 15.3828 212.067 16.6542 212.491 18.1355C212.916 19.617 213.128 21.2641 213.128 23.0773C213.128 26.9466 212.214 29.9261 210.385 32.0155C208.556 34.105 205.966 35.1497 202.616 35.1497C200.822 35.1497 199.265 34.8623 197.943 34.2874C196.622 33.7125 195.531 32.8944 194.669 31.8332C193.808 30.7717 193.165 29.5004 192.74 28.019C192.316 26.5375 192.103 24.8904 192.103 23.0773ZM197.2 23.0773C197.2 24.2491 197.306 25.3271 197.519 26.3109C197.731 27.295 198.056 28.1406 198.492 28.8482C198.929 29.5557 199.489 30.1085 200.173 30.5065C200.858 30.9045 201.672 31.1035 202.616 31.1035C204.338 31.1035 205.672 30.4732 206.615 29.213C207.559 27.9527 208.031 25.9075 208.031 23.0773C208.031 21.9497 207.931 20.8994 207.73 19.9265C207.53 18.9536 207.217 18.1023 206.792 17.3727C206.368 16.643 205.813 16.0738 205.129 15.6647C204.445 15.2556 203.607 15.0511 202.616 15.0511C200.893 15.0511 199.56 15.6979 198.616 16.9914C197.672 18.2848 197.2 20.3135 197.2 23.0773ZM230.118 15.5153H221.446V34.6854H216.597V11.4692H234.967V34.6854H230.118V15.5153ZM247.497 21.7174L248.205 24.7356H248.418L248.984 21.6179L252.7 11.4692H257.691L251.108 27.5215C250.589 28.7818 250.087 29.8763 249.603 30.805C249.12 31.7337 248.6 32.5019 248.046 33.11C247.491 33.718 246.872 34.1713 246.188 34.4698C245.503 34.7683 244.701 34.9176 243.781 34.9176C243.002 34.9176 242.371 34.8678 241.887 34.7683C241.403 34.6688 240.878 34.4532 240.312 34.1216L241.551 30.4402C241.952 30.6392 242.318 30.7608 242.648 30.805C242.978 30.8491 243.332 30.8712 243.71 30.8712C244.819 30.8712 245.598 30.0532 246.046 28.417L236.772 11.4692H242.471L247.497 21.7174ZM275.07 33.7346C274.315 34.2376 273.354 34.6025 272.186 34.8181C271.018 35.0392 269.82 35.1497 268.593 35.1497C267.106 35.1497 265.697 34.9342 264.363 34.503C263.03 34.0718 261.856 33.3753 260.841 32.4135C259.827 31.4516 259.019 30.2025 258.417 28.6657C257.815 27.129 257.514 25.2663 257.514 23.0773C257.514 20.7999 257.851 18.8928 258.523 17.3561C259.196 15.8195 260.069 14.5813 261.142 13.6415C262.216 12.7018 263.414 12.0274 264.735 11.6185C266.056 11.2094 267.378 11.0049 268.699 11.0049C270.115 11.0049 271.313 11.0933 272.292 11.2702C273.271 11.4471 274.08 11.6572 274.717 11.9004L273.761 15.7476C273.218 15.5044 272.575 15.3275 271.832 15.2169C271.089 15.1064 270.186 15.0511 269.124 15.0511C267.165 15.0511 265.59 15.7034 264.399 17.0135C263.207 18.3179 262.611 20.3466 262.611 23.0938C262.611 24.2878 262.753 25.3822 263.036 26.3663C263.319 27.3558 263.75 28.1959 264.328 28.8924C264.906 29.5889 265.626 30.1361 266.487 30.5231C267.348 30.9099 268.345 31.1035 269.478 31.1035C270.54 31.1035 271.437 31.004 272.168 30.805C272.9 30.606 273.537 30.3517 274.08 30.0422L275.07 33.7346ZM284.202 24.7688H282.928V34.6854H278.079V11.4692H282.928V21.7507L284.061 21.2864L290.892 11.4692H296.414L289.193 21.2199L287.282 22.4804L289.264 23.7738L297.511 34.6854H291.529L284.202 24.7688Z" fill="#144C7F"/>
<path d="M124.87 0C130.945 0 136.445 2.46253 140.426 6.44386C144.408 10.4249 146.87 15.9253 146.87 22C146.87 28.075 144.408 33.5751 140.426 37.5561C136.445 41.5375 130.945 44 124.87 44C118.795 44 113.295 41.5375 109.314 37.5561C105.333 33.5751 102.87 28.075 102.87 22C102.87 15.9253 105.333 10.4249 109.314 6.44386C113.295 2.46253 118.795 0 124.87 0ZM138.211 8.65945C134.797 5.2455 130.08 3.13379 124.87 3.13379C119.66 3.13379 114.943 5.2455 111.53 8.65945C108.116 12.0732 106.004 16.7901 106.004 22C106.004 27.2099 108.116 31.9268 111.53 35.3405C114.943 38.7545 119.66 40.8662 124.87 40.8662C130.08 40.8662 134.797 38.7545 138.211 35.3405C141.625 31.9268 143.736 27.2099 143.736 22C143.736 16.7901 141.625 12.0732 138.211 8.65945Z" fill="#144C7F"/>
<path d="M0 5.96973H110.132V7.53662H0V5.96973Z" fill="#144C7F"/>
<path d="M0 38.6836H115.74V41.8174H0V38.6836Z" fill="#144C7F"/>
<path d="M137.758 5.49316H296.836V7.06006H137.758V5.49316Z" fill="#144C7F"/>
<path d="M135.952 37.9141H296.836V41.0479H135.952V37.9141Z" fill="#144C7F"/>
<path fill-rule="evenodd" clip-rule="evenodd" d="M123.694 27.3828C124.475 27.3828 125.257 27.3828 126.039 27.3828L126.165 31.1101C125.737 31.0838 125.305 31.0701 124.87 31.0701C124.433 31.0701 123.998 31.0839 123.568 31.1106L123.694 27.3828ZM133.302 32.8508L130.78 20.8632C130.173 17.9828 129.679 15.6367 129.269 13.6865C128.654 13.6865 128.037 13.6865 127.422 13.6865C126.808 13.6865 126.191 13.6865 125.577 13.6865C125.591 14.098 125.605 14.5248 125.62 14.9671C125.118 14.9671 124.617 14.9671 124.116 14.9671C124.131 14.5248 124.146 14.098 124.16 13.6865C123.544 13.6865 122.927 13.6865 122.313 13.6865C121.698 13.6865 121.081 13.6865 120.467 13.6865C120.057 15.6367 119.563 17.9804 118.956 20.8632L116.43 32.8544C115.301 33.3562 114.225 33.9557 113.213 34.642L117.051 20.8632C117.853 17.9804 118.507 15.6367 119.048 13.6865C118.763 13.6865 118.477 13.6865 118.192 13.6865C117.518 15.8028 116.69 18.3891 115.658 21.6197L110.925 36.4378L110.925 36.4382L110.49 37.7982L110.376 38.1549L110.261 38.5146L110.145 38.8778L110.028 39.2442H110.362H112.514C115.699 36.1262 120.06 34.2039 124.87 34.2039C129.68 34.2039 134.041 36.1262 137.227 39.2442H139.378H139.712L139.595 38.8778L139.479 38.5146L139.364 38.1549L139.25 37.7982L138.816 36.4382L138.815 36.4378L134.082 21.6222C133.049 18.3892 132.223 15.8028 131.548 13.6865C131.259 13.6865 130.974 13.6865 130.688 13.6865C131.23 15.6367 131.883 17.9828 132.685 20.8632L136.517 34.6355C135.505 33.9504 134.43 33.3517 133.302 32.8508ZM124.086 15.8488C124.607 15.8488 125.128 15.8488 125.65 15.8488C125.684 16.8686 125.722 17.9828 125.763 19.2045C125.166 19.2045 124.568 19.2045 123.972 19.2045C124.014 17.9828 124.052 16.8686 124.086 15.8488ZM123.93 20.4644C124.554 20.4644 125.18 20.4644 125.806 20.4644C125.856 21.9469 125.912 23.5979 125.974 25.4379C125.235 25.4379 124.497 25.4379 123.76 25.4379C123.823 23.5979 123.879 21.9469 123.93 20.4644Z" fill="#144C7F"/>
</svg>
