<svg width="676" height="842" viewBox="0 0 676 842" fill="none" xmlns="http://www.w3.org/2000/svg">
<path d="M606.639 -54.1672C715.7 -24.9444 802.605 45.7266 854.925 136.356C907.252 226.981 925.002 337.578 895.779 446.639C866.555 555.706 795.886 642.605 705.257 694.925C614.632 747.252 504.034 765.002 394.973 735.779C285.907 706.555 199.007 635.886 146.687 545.257C94.3603 454.632 76.6084 344.04 105.833 234.973C135.056 125.912 205.727 39.0074 296.356 -13.3125C386.98 -65.6396 497.572 -83.3916 606.639 -54.1672ZM804.489 165.475C759.623 87.7604 685.099 27.1576 591.564 2.09479C498.028 -22.968 403.187 -7.74652 325.475 37.123C247.76 81.9889 187.158 156.513 162.095 250.049C137.032 343.584 152.253 438.426 197.123 516.138C241.989 593.852 316.513 654.455 410.049 679.517C503.584 704.58 598.426 689.359 676.138 644.489C753.852 599.623 814.455 525.099 839.517 431.564C864.58 338.028 849.359 243.187 804.489 165.475Z" fill="#D7E4F0"/>
<path fill-rule="evenodd" clip-rule="evenodd" d="M453.804 431.78C467.813 435.534 481.862 439.298 495.908 443.061L480.239 510.586C472.671 508.051 464.987 505.73 457.175 503.637C449.321 501.532 441.457 499.69 433.595 498.097L453.804 431.78ZM599.993 576.168L612.369 348.816C615.342 294.187 617.758 249.69 619.784 212.707C608.731 209.745 597.653 206.777 586.623 203.821C575.593 200.866 564.515 197.897 553.485 194.942C551.756 202.396 549.961 210.128 548.103 218.142C539.096 215.728 530.088 213.315 521.106 210.908C523.504 203.039 525.819 195.446 528.046 188.125C516.993 185.164 505.915 182.196 494.885 179.24C483.855 176.285 472.777 173.316 461.747 170.361C445.006 203.401 424.864 243.103 400.096 291.938L297.061 495.067C274.382 498.647 252.186 504.236 230.712 511.688L365.891 282.773C394.17 234.879 417.173 195.943 436.282 163.538C431.151 162.163 426.02 160.788 420.912 159.419C398.621 194.168 371.326 236.621 337.258 289.657L180.99 532.921L180.983 532.925L166.642 555.253L162.882 561.108L159.089 567.014L155.257 572.976L151.394 578.99L157.391 580.597L196.015 590.946C268.204 550.293 355.743 536.76 442.1 559.899C528.456 583.038 597.5 638.527 639.691 709.829L678.315 720.178L684.313 721.785L683.974 714.645L683.639 707.567L683.305 700.555L682.976 693.604L681.72 667.097L681.716 667.09L668.013 378.331C665.024 315.32 662.625 264.907 660.689 223.667C655.51 222.279 650.379 220.905 645.248 219.53C645.591 257.147 646.036 302.411 646.574 357.981L649.13 623.676C634.258 606.509 617.838 590.589 599.993 576.168ZM516.327 226.593C525.667 229.096 535.031 231.605 544.396 234.115C540.11 252.588 535.428 272.774 530.29 294.906C519.564 292.032 508.835 289.157 498.139 286.291C504.762 264.557 510.8 244.735 516.327 226.593ZM491.307 308.704C502.515 311.707 513.756 314.719 524.994 317.731C518.763 344.587 511.819 374.496 504.085 407.829C490.827 404.277 477.568 400.724 464.347 397.182C474.321 364.448 483.273 335.077 491.307 308.704Z" fill="#D7E4F0"/>
</svg>
