<svg width="298" height="44" viewBox="0 0 298 44" fill="none" xmlns="http://www.w3.org/2000/svg">
<path d="M21.3317 38.8313H17.9935L17.4772 34.6856H0.510681V11.4693H5.22547V30.6394H13.5195V11.4693H18.2345V30.6394H21.3317V38.8313ZM23.9817 11.4693H38.2638V15.5155H28.6965V20.9216H37.4034V24.968H28.6965V30.6394H38.4358V34.6856H23.9817V11.4693ZM55.4711 24.968H46.6609V34.6856H41.9461V11.4693H46.6609V20.9216H55.4711V11.4693H60.1861V34.6856H55.4711V24.968ZM81.4545 15.5155H74.4337V34.6856H69.7189V15.5155H62.6638V11.4693H81.4545V15.5155ZM83.8979 11.7016C84.8615 11.5247 85.9225 11.3865 87.0812 11.287C88.2398 11.1875 89.3927 11.1376 90.54 11.1376C91.733 11.1376 92.9318 11.2316 94.1363 11.4197C95.3408 11.6075 96.4249 11.9834 97.3884 12.5472C98.3521 13.1111 99.1378 13.896 99.746 14.9021C100.354 15.908 100.658 17.2181 100.658 18.8322C100.658 20.2916 100.394 21.5241 99.8665 22.5302C99.3386 23.5363 98.6388 24.3599 97.767 25.0011C96.8953 25.6422 95.903 26.1067 94.7902 26.394C93.6774 26.6816 92.5245 26.8252 91.3314 26.8252C91.2169 26.8252 91.0332 26.8252 90.7808 26.8252C90.5284 26.8252 90.2645 26.8198 89.9892 26.8086C89.7139 26.7977 89.4444 26.7811 89.1805 26.759C88.9167 26.7367 88.7274 26.7146 88.6125 26.6925V34.6856H83.8979V11.7016ZM90.9184 15.0513C90.4596 15.0513 90.0237 15.0679 89.6108 15.1011C89.1978 15.1342 88.8651 15.1729 88.6125 15.217V22.7458C88.7045 22.7679 88.8422 22.79 89.0256 22.8121C89.2092 22.8342 89.4043 22.8508 89.6108 22.8619C89.8172 22.8729 90.0179 22.8785 90.213 22.8785C90.4079 22.8785 90.5513 22.8785 90.6432 22.8785C91.2626 22.8785 91.8762 22.8232 92.4843 22.7126C93.0923 22.6021 93.6373 22.3975 94.1191 22.099C94.6007 21.8005 94.9851 21.3861 95.272 20.8554C95.5587 20.3247 95.7021 19.6282 95.7021 18.7659C95.7021 18.0362 95.5644 17.4337 95.2892 16.9583C95.0138 16.4829 94.6525 16.1016 94.2051 15.814C93.7578 15.5267 93.2473 15.3277 92.6736 15.217C92.1 15.1066 91.5151 15.0513 90.9184 15.0513Z" fill="white"/>
<path d="M163.929 15.5156H155.257V34.6856H150.407V11.4694H168.778V34.6856H163.929V15.5156ZM173.025 11.7016C174.016 11.5247 175.108 11.3865 176.299 11.287C177.491 11.1875 178.677 11.1377 179.856 11.1377C181.084 11.1377 182.317 11.2317 183.555 11.4197C184.794 11.6076 185.909 11.9835 186.9 12.5472C187.891 13.1112 188.699 13.896 189.325 14.9021C189.95 15.9081 190.263 17.2182 190.263 18.8322C190.263 20.2916 189.991 21.5241 189.449 22.5302C188.906 23.5363 188.186 24.3599 187.29 25.0011C186.393 25.6423 185.372 26.1067 184.228 26.3941C183.084 26.6816 181.898 26.8253 180.671 26.8253C180.553 26.8253 180.364 26.8253 180.104 26.8253C179.845 26.8253 179.573 26.8198 179.29 26.8087C179.007 26.7977 178.73 26.7811 178.458 26.759C178.187 26.7367 177.992 26.7146 177.874 26.6925V34.6856H173.025V11.7016ZM180.246 15.0513C179.774 15.0513 179.326 15.0679 178.901 15.1011C178.476 15.1342 178.134 15.1729 177.874 15.2171V22.7458C177.969 22.7679 178.11 22.79 178.299 22.8121C178.488 22.8342 178.689 22.8508 178.901 22.862C179.113 22.8729 179.32 22.8786 179.52 22.8786C179.721 22.8786 179.868 22.8786 179.963 22.8786C180.6 22.8786 181.231 22.8233 181.856 22.7126C182.482 22.6022 183.042 22.3975 183.538 22.099C184.033 21.8005 184.428 21.3861 184.723 20.8554C185.018 20.3247 185.166 19.6282 185.166 18.7659C185.166 18.0362 185.024 17.4338 184.741 16.9584C184.458 16.483 184.086 16.1016 183.626 15.8141C183.166 15.5267 182.641 15.3277 182.051 15.2171C181.461 15.1066 180.859 15.0513 180.246 15.0513ZM192.103 23.0776C192.103 19.2081 193.012 16.2287 194.829 14.1392C196.646 12.0497 199.242 11.0051 202.616 11.0051C204.386 11.0051 205.931 11.2925 207.253 11.8674C208.574 12.4423 209.671 13.2603 210.544 14.3216C211.418 15.383 212.067 16.6544 212.491 18.1357C212.916 19.6172 213.128 21.2643 213.128 23.0776C213.128 26.9469 212.214 29.9263 210.385 32.0158C208.556 34.1052 205.966 35.1499 202.616 35.1499C200.822 35.1499 199.265 34.8625 197.943 34.2876C196.622 33.7127 195.531 32.8946 194.669 31.8334C193.808 30.772 193.165 29.5006 192.74 28.0192C192.316 26.5377 192.103 24.8906 192.103 23.0776ZM197.2 23.0776C197.2 24.2493 197.306 25.3273 197.519 26.3112C197.731 27.2952 198.056 28.1408 198.492 28.8484C198.929 29.5559 199.489 30.1087 200.173 30.5067C200.858 30.9047 201.672 31.1037 202.616 31.1037C204.338 31.1037 205.672 30.4735 206.615 29.2132C207.559 27.953 208.031 25.9077 208.031 23.0776C208.031 21.9499 207.931 20.8996 207.73 19.9267C207.53 18.9538 207.217 18.1025 206.792 17.373C206.368 16.6433 205.813 16.074 205.129 15.6649C204.445 15.2558 203.607 15.0513 202.616 15.0513C200.893 15.0513 199.56 15.6981 198.616 16.9916C197.672 18.2851 197.2 20.3137 197.2 23.0776ZM230.118 15.5156H221.446V34.6856H216.597V11.4694H234.967V34.6856H230.118V15.5156ZM247.497 21.7176L248.205 24.7358H248.418L248.984 21.6182L252.7 11.4694H257.691L251.108 27.5217C250.589 28.782 250.087 29.8765 249.603 30.8052C249.12 31.7339 248.6 32.5021 248.046 33.1102C247.491 33.7182 246.872 34.1715 246.188 34.47C245.503 34.7685 244.701 34.9178 243.781 34.9178C243.002 34.9178 242.371 34.868 241.887 34.7685C241.403 34.669 240.878 34.4534 240.312 34.1218L241.551 30.4404C241.952 30.6394 242.318 30.761 242.648 30.8052C242.978 30.8494 243.332 30.8715 243.71 30.8715C244.819 30.8715 245.598 30.0534 246.046 28.4172L236.772 11.4694H242.471L247.497 21.7176ZM275.07 33.7348C274.315 34.2378 273.354 34.6027 272.186 34.8183C271.018 35.0394 269.82 35.1499 268.593 35.1499C267.106 35.1499 265.697 34.9344 264.363 34.5032C263.03 34.072 261.856 33.3755 260.841 32.4138C259.827 31.4518 259.019 30.2027 258.417 28.6659C257.815 27.1292 257.514 25.2665 257.514 23.0776C257.514 20.8001 257.851 18.893 258.523 17.3564C259.196 15.8197 260.069 14.5815 261.142 13.6417C262.216 12.702 263.414 12.0277 264.735 11.6187C266.056 11.2096 267.378 11.0051 268.699 11.0051C270.115 11.0051 271.313 11.0935 272.292 11.2704C273.271 11.4473 274.08 11.6574 274.717 11.9006L273.761 15.7478C273.218 15.5046 272.575 15.3277 271.832 15.2171C271.089 15.1066 270.186 15.0513 269.124 15.0513C267.165 15.0513 265.59 15.7036 264.399 17.0137C263.207 18.3181 262.611 20.3468 262.611 23.094C262.611 24.288 262.753 25.3825 263.036 26.3665C263.319 27.356 263.75 28.1961 264.328 28.8926C264.906 29.5891 265.626 30.1363 266.487 30.5233C267.348 30.9102 268.345 31.1037 269.478 31.1037C270.54 31.1037 271.437 31.0042 272.168 30.8052C272.9 30.6062 273.537 30.3519 274.08 30.0424L275.07 33.7348ZM284.202 24.769H282.928V34.6856H278.079V11.4694H282.928V21.7509L284.061 21.2866L290.892 11.4694H296.414L289.193 21.2202L287.282 22.4806L289.264 23.774L297.511 34.6856H291.529L284.202 24.769Z" fill="white"/>
<path d="M124.87 0C130.945 0 136.445 2.46253 140.426 6.44386C144.408 10.4249 146.87 15.9253 146.87 22C146.87 28.075 144.408 33.5751 140.426 37.5561C136.445 41.5375 130.945 44 124.87 44C118.795 44 113.295 41.5375 109.314 37.5561C105.333 33.5751 102.87 28.075 102.87 22C102.87 15.9253 105.333 10.4249 109.314 6.44386C113.295 2.46253 118.795 0 124.87 0ZM138.211 8.65945C134.797 5.2455 130.08 3.13379 124.87 3.13379C119.66 3.13379 114.943 5.2455 111.53 8.65945C108.116 12.0732 106.004 16.7901 106.004 22C106.004 27.2099 108.116 31.9268 111.53 35.3405C114.943 38.7545 119.66 40.8662 124.87 40.8662C130.08 40.8662 134.797 38.7545 138.211 35.3405C141.625 31.9268 143.736 27.2099 143.736 22C143.736 16.7901 141.625 12.0732 138.211 8.65945Z" fill="white"/>
<path d="M0 5.96924H110.132V7.53613H0V5.96924Z" fill="white"/>
<path d="M0 38.6835H115.74V41.8173H0V38.6835Z" fill="white"/>
<path d="M137.758 5.49307H296.836V7.05997H137.758V5.49307Z" fill="white"/>
<path d="M135.952 37.9142H296.836V41.0479H135.952V37.9142Z" fill="white"/>
<path fill-rule="evenodd" clip-rule="evenodd" d="M123.694 27.3823C124.475 27.3823 125.257 27.3823 126.039 27.3823L126.165 31.1096C125.737 31.0833 125.305 31.0696 124.87 31.0696C124.433 31.0696 123.998 31.0834 123.568 31.1101L123.694 27.3823ZM133.302 32.8503L130.78 20.8627C130.173 17.9823 129.679 15.6362 129.269 13.686C128.654 13.686 128.037 13.686 127.422 13.686C126.808 13.686 126.191 13.686 125.577 13.686C125.591 14.0975 125.605 14.5243 125.62 14.9667C125.118 14.9667 124.617 14.9667 124.116 14.9667C124.131 14.5243 124.146 14.0975 124.16 13.686C123.544 13.686 122.927 13.686 122.313 13.686C121.698 13.686 121.081 13.686 120.467 13.686C120.057 15.6362 119.563 17.98 118.956 20.8627L116.43 32.8539C115.301 33.3557 114.225 33.9552 113.213 34.6415L117.051 20.8627C117.853 17.98 118.507 15.6362 119.048 13.686C118.763 13.686 118.477 13.686 118.192 13.686C117.518 15.8023 116.69 18.3886 115.658 21.6192L110.925 36.4374L110.925 36.4377L110.49 37.7977L110.376 38.1544L110.261 38.5141L110.145 38.8773L110.028 39.2437H110.362H112.514C115.699 36.1257 120.06 34.2034 124.87 34.2034C129.68 34.2034 134.041 36.1257 137.226 39.2437H139.378H139.712L139.595 38.8773L139.479 38.5141L139.364 38.1544L139.25 37.7977L138.816 36.4377L138.815 36.4374L134.082 21.6217C133.049 18.3888 132.223 15.8023 131.548 13.686C131.259 13.686 130.974 13.686 130.688 13.686C131.23 15.6362 131.883 17.9823 132.685 20.8627L136.517 34.635C135.505 33.9499 134.43 33.3512 133.302 32.8503ZM124.086 15.8484C124.607 15.8484 125.128 15.8484 125.65 15.8484C125.684 16.8681 125.722 17.9823 125.763 19.204C125.166 19.204 124.568 19.204 123.972 19.204C124.014 17.9823 124.052 16.8681 124.086 15.8484ZM123.93 20.464C124.554 20.464 125.18 20.464 125.806 20.464C125.856 21.9464 125.912 23.5974 125.974 25.4374C125.235 25.4374 124.497 25.4374 123.76 25.4374C123.823 23.5974 123.879 21.9464 123.93 20.464Z" fill="white"/>
</svg>
