<svg width="84" height="84" viewBox="0 0 84 84" fill="none" xmlns="http://www.w3.org/2000/svg">
<path d="M11.0422 35.4259C14.3326 19.9605 29.5372 10.0907 45.0026 13.3811L50.7962 14.6137C66.2617 17.9041 76.1315 33.1087 72.8411 48.5741C69.5507 64.0395 54.3461 73.9093 38.8807 70.619L33.087 69.3863C17.6216 66.0959 7.75181 50.8913 11.0422 35.4259Z" fill="#D7E4F0"/>
<path d="M66.8889 41.9853V27.7631H17.1111C15.2251 27.7631 13.4164 27.0139 12.0828 25.6803C10.7492 24.3467 10 22.538 10 20.652C10 16.7409 13.2 13.5409 17.1111 13.5409H59.7778V27.7631" stroke="#144C7F" stroke-width="4" stroke-linecap="round" stroke-linejoin="round"/>
<path d="M10 20.652V63.3186C10 67.2298 13.2 70.4298 17.1111 70.4298H66.8889V56.2075" stroke="#144C7F" stroke-width="4" stroke-linecap="round" stroke-linejoin="round"/>
<path d="M59.7778 41.9854C57.8918 41.9854 56.0831 42.7346 54.7495 44.0681C53.4159 45.4017 52.6667 47.2105 52.6667 49.0965C52.6667 53.0076 55.8667 56.2076 59.7778 56.2076H74V41.9854H59.7778Z" stroke="#144C7F" stroke-width="4" stroke-linecap="round" stroke-linejoin="round"/>
</svg>
