<svg width="84" height="84" viewBox="0 0 84 84" fill="none" xmlns="http://www.w3.org/2000/svg">
<path d="M12.0933 33.1584C14.5953 17.546 29.2799 6.91791 44.8922 9.41987L50.7409 10.3572C66.3533 12.8591 76.9814 27.5437 74.4794 43.1561C71.9775 58.7684 57.2929 69.3965 41.6805 66.8946L35.8318 65.9573C20.2195 63.4553 9.59137 48.7707 12.0933 33.1584Z" fill="#D7E4F0"/>
<path d="M47.4748 23.7838C50.6315 24.4063 53.5282 25.9632 55.7889 28.2526C58.0497 30.542 59.5701 33.458 60.1528 36.6223M47.4748 10.9454C54.0168 11.6347 60.1276 14.5363 64.7966 19.1703C69.4656 23.8043 72.4132 29.893 73.1517 36.4297M73.1517 58.897V68.5258C73.1517 70.2283 72.4754 71.8611 71.2716 73.0649C70.0677 74.2688 68.435 74.9451 66.7325 74.9451H66.1227C56.2461 73.8719 46.7591 70.497 38.4237 65.0916C30.67 60.1621 24.0955 53.5875 19.166 45.8339C13.6902 37.4518 10.2701 27.8955 9.18412 17.9423C9.10461 17.1012 9.19193 16.2526 9.44109 15.4453C9.69025 14.6379 10.0963 13.8877 10.6361 13.2377C11.1758 12.5876 11.8385 12.0505 12.5863 11.6571C13.334 11.2638 14.1521 11.0219 14.9935 10.9454H25.2001C26.7577 10.93 28.2678 11.4816 29.4489 12.4973C30.6299 13.513 31.4013 14.9235 31.6193 16.4659C32.03 19.5465 32.7836 22.5716 33.866 25.4849C34.2979 26.6337 34.3913 27.8822 34.1354 29.0825C33.8794 30.2828 33.2847 31.3846 32.4217 32.2572L28.3455 36.3334C32.9146 44.3688 39.5678 51.022 47.6032 55.5911L51.6794 51.5149C52.5521 50.6519 53.6538 50.0572 54.8541 49.8013C56.0544 49.5453 57.3029 49.6387 58.4517 50.0706C61.365 51.153 64.3901 51.9066 67.4707 52.3173C69.0298 52.5372 70.4537 53.3226 71.4716 54.5239C72.4895 55.7252 73.0303 57.2587 72.9912 58.8328L73.1517 58.897Z" stroke="#144C7F" stroke-width="4" stroke-linecap="round" stroke-linejoin="round"/>
</svg>
