<svg width="84" height="84" viewBox="0 0 84 84" fill="none" xmlns="http://www.w3.org/2000/svg">
<path d="M10.5026 44.0078C9.28585 28.2431 21.0793 14.4769 36.844 13.2601L42.7497 12.8043C58.5144 11.5876 72.2806 23.381 73.4974 39.1457C74.7141 54.9104 62.9207 68.6765 47.156 69.8933L41.2502 70.3491C25.4856 71.5659 11.7194 59.7725 10.5026 44.0078Z" fill="#D7E4F0"/>
<path d="M18.2583 74H63.0583C64.7557 74 66.3836 73.3257 67.5838 72.1255C68.784 70.9253 69.4583 69.2974 69.4583 67.6V27.6L51.8583 10H24.6583C22.9609 10 21.333 10.6743 20.1328 11.8745C18.9326 13.0747 18.2583 14.7026 18.2583 16.4V29.2" stroke="#144C7F" stroke-width="4" stroke-linecap="round" stroke-linejoin="round"/>
<path d="M50.2583 10V29.2H69.4583" stroke="#144C7F" stroke-width="4" stroke-linecap="round" stroke-linejoin="round"/>
<path d="M15.0583 51.6H34.2583" stroke="#144C7F" stroke-width="4" stroke-linecap="round" stroke-linejoin="round"/>
<path d="M24.6583 42V61.2" stroke="#144C7F" stroke-width="4" stroke-linecap="round" stroke-linejoin="round"/>
</svg>
