<svg width="84" height="84" viewBox="0 0 84 84" fill="none" xmlns="http://www.w3.org/2000/svg">
<path d="M14.2197 61.7258C6.31388 48.0326 11.0055 30.5232 24.6987 22.6174L29.8285 19.6557C43.5217 11.7499 61.0312 16.4416 68.937 30.1348C76.8428 43.828 72.1511 61.3375 58.4579 69.2433L53.3281 72.2049C39.6349 80.1107 22.1255 75.4191 14.2197 61.7258Z" fill="#D7E4F0"/>
<path d="M26.6365 71.9543H17.0366C15.3392 71.9543 13.7113 71.28 12.5111 70.0798C11.3109 68.8796 10.6366 67.2517 10.6366 65.5543V43.1545C10.6366 41.4571 11.3109 39.8293 12.5111 38.629C13.7113 37.4288 15.3392 36.7545 17.0366 36.7545H26.6365M49.0364 30.3546V17.5547C49.0364 15.0086 48.0249 12.5668 46.2246 10.7665C44.4243 8.96613 41.9825 7.95471 39.4364 7.95471L26.6365 36.7545V71.9543H62.7323C64.2757 71.9718 65.7735 71.4308 66.9495 70.4311C68.1256 69.4315 68.9008 68.0404 69.1322 66.5143L73.5482 37.7145C73.6874 36.7973 73.6256 35.8607 73.3669 34.9697C73.1082 34.0788 72.6589 33.2547 72.0502 32.5546C71.4414 31.8545 70.6877 31.2951 69.8412 30.9153C68.9948 30.5354 68.0759 30.3441 67.1482 30.3546H49.0364Z" stroke="#144C7F" stroke-width="4" stroke-linecap="round" stroke-linejoin="round"/>
</svg>
