<svg width="84" height="84" viewBox="0 0 84 84" fill="none" xmlns="http://www.w3.org/2000/svg">
<path d="M11.5448 53.5981C7.34309 38.355 16.2939 22.5919 31.537 18.3903L37.2474 16.8162C52.4905 12.6145 68.2536 21.5654 72.4552 36.8085C76.6569 52.0516 67.7061 67.8147 52.463 72.0163L46.7526 73.5904C31.5095 77.7921 15.7464 68.8412 11.5448 53.5981Z" fill="#D7E4F0"/>
<path d="M54.2692 15.7731H60.6692C62.3665 15.7731 63.9944 16.4474 65.1946 17.6476C66.3949 18.8478 67.0692 20.4757 67.0692 22.1731V66.9731C67.0692 68.6705 66.3949 70.2983 65.1946 71.4986C63.9944 72.6988 62.3665 73.3731 60.6692 73.3731H22.2692C20.5718 73.3731 18.9439 72.6988 17.7437 71.4986C16.5434 70.2983 15.8692 68.6705 15.8692 66.9731V22.1731C15.8692 20.4757 16.5434 18.8478 17.7437 17.6476C18.9439 16.4474 20.5718 15.7731 22.2692 15.7731H28.6692" stroke="#144C7F" stroke-width="4" stroke-linecap="round" stroke-linejoin="round"/>
<path d="M51.0692 9.37305H31.8692C31.0205 9.37305 30.2065 9.71019 29.6064 10.3103C29.0063 10.9104 28.6692 11.7244 28.6692 12.573V18.973C28.6692 19.8217 29.0063 20.6357 29.6064 21.2358C30.2065 21.8359 31.0205 22.173 31.8692 22.173H51.0692C51.9179 22.173 52.7318 21.8359 53.3319 21.2358C53.932 20.6357 54.2692 19.8217 54.2692 18.973V12.573C54.2692 11.7244 53.932 10.9104 53.3319 10.3103C52.7318 9.71019 51.9179 9.37305 51.0692 9.37305V9.37305Z" stroke="#144C7F" stroke-width="4" stroke-linecap="round" stroke-linejoin="round"/>
<path d="M37.4692 36.5731H54.2692" stroke="#144C7F" stroke-width="4" stroke-linecap="round" stroke-linejoin="round"/>
<path d="M37.4692 55.7731H54.2692" stroke="#144C7F" stroke-width="4" stroke-linecap="round" stroke-linejoin="round"/>
<path d="M28.6692 36.5731H28.7012" stroke="#144C7F" stroke-width="4" stroke-linecap="round" stroke-linejoin="round"/>
<path d="M37.4692 46.173H54.2692" stroke="#144C7F" stroke-width="4" stroke-linecap="round" stroke-linejoin="round"/>
<path d="M28.6692 46.173H28.7012" stroke="#144C7F" stroke-width="4" stroke-linecap="round" stroke-linejoin="round"/>
<path d="M28.6692 55.7731H28.7012" stroke="#144C7F" stroke-width="4" stroke-linecap="round" stroke-linejoin="round"/>
</svg>
