<svg width="21" height="20" viewBox="0 0 21 20" fill="none" xmlns="http://www.w3.org/2000/svg">
<path d="M7.68679 12.3661C9.48447 14.1506 11.5652 15.8553 12.3821 15.0321C13.5518 13.8539 14.2717 12.8289 16.8672 14.8988C19.4627 16.9697 17.4805 18.3634 16.3476 19.5051C15.0404 20.8222 10.144 19.5974 5.29074 14.7809C0.437723 9.9634 -0.824521 5.07663 0.483707 3.75884C1.61689 2.61711 2.99573 0.625009 5.08472 3.20538C7.17473 5.78445 6.15516 6.51228 4.98551 7.69081C4.169 8.5136 5.88882 10.5812 7.68679 12.3661ZM10.2935 3.85278C10.2935 3.85278 9.75119 3.76806 9.37149 4.14806C8.98062 4.53892 8.96357 5.21226 9.37545 5.6238C9.61884 5.8672 9.96208 5.91907 9.96208 5.91907C10.6312 6.04456 11.6395 6.25705 12.7126 7.3298C13.7854 8.4025 13.9979 9.41087 14.1234 10.0803C14.1234 10.0803 14.1752 10.4235 14.4186 10.6669C14.8302 11.0785 15.5035 11.0618 15.8944 10.6709C16.2741 10.2912 16.1896 9.74894 16.1896 9.74894C15.9772 8.39371 15.3202 6.97806 14.1923 5.85015C13.064 4.72223 11.6483 4.06561 10.2935 3.85278ZM15.3803 4.66209C17.3471 6.62893 18.1856 8.86114 17.9127 10.6699C17.9127 10.6699 17.8174 11.2427 18.1915 11.6169C18.6126 12.038 19.28 12.0137 19.6742 11.6198C19.9274 11.3666 19.9826 10.9544 19.9826 10.9544C20.2083 9.39126 19.9245 6.24661 16.86 3.18244C13.7955 0.118218 10.6512 -0.16556 9.088 0.0597719C9.088 0.0597719 8.67612 0.114644 8.42253 0.368184C8.02838 0.762334 8.00443 1.42978 8.42548 1.85083C8.79963 2.22499 9.3724 2.12968 9.3724 2.12968C11.1813 1.85673 13.4134 2.69531 15.3803 4.66209Z" fill="white"/>
</svg>
