<svg width="37" height="36" viewBox="0 0 37 36" fill="none" xmlns="http://www.w3.org/2000/svg">
<g filter="url(#filter0_d_20_93)">
<path d="M34.7405 17C34.7405 25.84 27.5805 33 18.7405 33C9.90048 33 2.74048 25.84 2.74048 17C2.74048 8.16 9.90048 1 18.7405 1C27.5805 1 34.7405 8.16 34.7405 17Z" fill="url(#paint0_linear_20_93)"/>
<path d="M15.8071 24.3333C15.2871 24.3333 15.3805 24.1333 15.1938 23.64L13.6738 18.6267L23.1138 12.7333L24.2205 13.0267L23.3005 15.5333L15.8071 24.3333Z" fill="#C8DAEA"/>
<path d="M15.8072 24.3333C16.2072 24.3333 16.3805 24.1467 16.6072 23.9333C16.9538 23.6 21.4072 19.2667 21.4072 19.2667L18.6738 18.6L16.1405 20.2L15.8072 24.2V24.3333Z" fill="#A9C9DD"/>
<path d="M16.0738 20.2533L22.5272 25.0133C23.2605 25.4133 23.7938 25.2133 23.9805 24.3333L26.6072 11.96C26.8738 10.88 26.1938 10.4 25.4872 10.72L10.0738 16.6667C9.02049 17.0933 9.03382 17.68 9.88715 17.9333L13.8472 19.1733L23.0072 13.4C23.4338 13.1333 23.8338 13.28 23.5138 13.5733L16.0738 20.2533Z" fill="url(#paint1_linear_20_93)"/>
</g>
<defs>
<filter id="filter0_d_20_93" x="0.740479" y="0" width="36" height="36" filterUnits="userSpaceOnUse" color-interpolation-filters="sRGB">
<feFlood flood-opacity="0" result="BackgroundImageFix"/>
<feColorMatrix in="SourceAlpha" type="matrix" values="0 0 0 0 0 0 0 0 0 0 0 0 0 0 0 0 0 0 127 0" result="hardAlpha"/>
<feOffset dy="1"/>
<feGaussianBlur stdDeviation="1"/>
<feComposite in2="hardAlpha" operator="out"/>
<feColorMatrix type="matrix" values="0 0 0 0 0 0 0 0 0 0 0 0 0 0 0 0 0 0 0.15 0"/>
<feBlend mode="normal" in2="BackgroundImageFix" result="effect1_dropShadow_20_93"/>
<feBlend mode="normal" in="SourceGraphic" in2="effect1_dropShadow_20_93" result="shape"/>
</filter>
<linearGradient id="paint0_linear_20_93" x1="23.4298" y1="6.05733" x2="15.4298" y2="24.7237" gradientUnits="userSpaceOnUse">
<stop stop-color="#37AEE2"/>
<stop offset="1" stop-color="#1E96C8"/>
</linearGradient>
<linearGradient id="paint1_linear_20_93" x1="19.9393" y1="17.5007" x2="23.2726" y2="22.834" gradientUnits="userSpaceOnUse">
<stop stop-color="#EFF7FC"/>
<stop offset="1" stop-color="white"/>
</linearGradient>
</defs>
</svg>
