<svg width="147" height="44" viewBox="0 0 147 44" fill="none" xmlns="http://www.w3.org/2000/svg">
<path d="M45.1027 6.03253H43.6082V40.4047H45.1027V6.03253Z" fill="#11B9A5"/>
<path fill-rule="evenodd" clip-rule="evenodd" d="M45.3463 4.23544H7.38837V8.69562H49.3221L45.3463 4.23544Z" fill="#137AAA"/>
<path fill-rule="evenodd" clip-rule="evenodd" d="M45.3463 10.0297H7.38837V14.4898H49.3221L45.3463 10.0297ZM44.3723 11.6619C45.0323 11.6619 45.5679 11.9299 45.5679 12.2597C45.5679 12.5896 45.0323 12.8575 44.3723 12.8575C43.7125 12.8575 43.1768 12.5896 43.1768 12.2597C43.1768 11.9299 43.7125 11.6619 44.3723 11.6619Z" fill="#137AAA"/>
<path fill-rule="evenodd" clip-rule="evenodd" d="M45.3463 15.8239H7.38837V20.2841H49.3221L45.3463 15.8239ZM44.3723 17.4562C45.0323 17.4562 45.5679 17.7241 45.5679 18.054C45.5679 18.3839 45.0323 18.6517 44.3723 18.6517C43.7125 18.6517 43.1768 18.3839 43.1768 18.054C43.1768 17.7241 43.7125 17.4562 44.3723 17.4562Z" fill="#137AAA"/>
<path fill-rule="evenodd" clip-rule="evenodd" d="M45.3463 21.6182H7.38837V26.0784H49.3221L45.3463 21.6182ZM44.3723 23.2505C45.0323 23.2505 45.5679 23.5184 45.5679 23.8482C45.5679 24.1782 45.0323 24.446 44.3723 24.446C43.7125 24.446 43.1768 24.1782 43.1768 23.8482C43.1768 23.5184 43.7125 23.2505 44.3723 23.2505Z" fill="#137AAA"/>
<path fill-rule="evenodd" clip-rule="evenodd" d="M45.3463 27.4125H7.38837V31.8727H49.3221L45.3463 27.4125ZM44.3723 29.0447C45.0323 29.0447 45.5679 29.3127 45.5679 29.6425C45.5679 29.9725 45.0323 30.2403 44.3723 30.2403C43.7125 30.2403 43.1768 29.9725 43.1768 29.6425C43.1768 29.3127 43.7125 29.0447 44.3723 29.0447Z" fill="#137AAA"/>
<path fill-rule="evenodd" clip-rule="evenodd" d="M45.3463 33.2068H7.38837V37.6669H49.3221L45.3463 33.2068ZM44.3723 34.839C45.0323 34.839 45.5679 35.1069 45.5679 35.4368C45.5679 35.7667 45.0323 36.0345 44.3723 36.0345C43.7125 36.0345 43.1768 35.7667 43.1768 35.4368C43.1768 35.1069 43.7125 34.839 44.3723 34.839Z" fill="#137AAA"/>
<path d="M45.1027 8.69553H43.6082V12.2597H45.1027V8.69553Z" fill="#11B9A5"/>
<path d="M45.1027 14.4898H43.6082V18.054H45.1027V14.4898Z" fill="#11B9A5"/>
<path d="M45.1027 20.2841H43.6082V23.8483H45.1027V20.2841Z" fill="#11B9A5"/>
<path d="M45.1027 26.0784H43.6082V29.6425H45.1027V26.0784Z" fill="#11B9A5"/>
<path d="M45.1027 31.8726H43.6082V35.4368H45.1027V31.8726Z" fill="#11B9A5"/>
<path fill-rule="evenodd" clip-rule="evenodd" d="M0 36.2184V5.97779C0 2.67641 2.6764 0 5.97779 0C17.0853 0 39.7889 0 39.7889 0L41.8442 2.55879H7.58058C6.26009 2.55879 5.18947 3.62926 5.18947 4.9499V37.2464C5.18947 38.5669 6.26009 39.6375 7.58058 39.6375H41.8442L39.7889 42.1961C39.7889 42.1961 17.0853 42.1961 5.97779 42.1961C2.6764 42.1961 0 39.5199 0 36.2184Z" fill="#1F5A74"/>
<path fill-rule="evenodd" clip-rule="evenodd" d="M44.3553 39.7906C43.1938 39.7906 42.2507 40.7337 42.2507 41.8953C42.2507 43.0569 43.1938 44 44.3553 44C45.517 44 46.46 43.0569 46.46 41.8953C46.46 40.7337 45.517 39.7906 44.3553 39.7906ZM44.3553 40.4133C45.1733 40.4133 45.8373 41.0774 45.8373 41.8953C45.8373 42.7132 45.1733 43.3772 44.3553 43.3772C43.5375 43.3772 42.8734 42.7132 42.8734 41.8953C42.8734 41.0774 43.5375 40.4133 44.3553 40.4133Z" fill="#231F20"/>
<path d="M58.558 15.52C58.558 14.74 58.696 13.978 58.972 13.234C59.26 12.478 59.674 11.794 60.214 11.182C60.754 10.558 61.414 10.066 62.194 9.706C62.974 9.334 63.862 9.148 64.858 9.148C66.034 9.148 67.048 9.406 67.9 9.922C68.764 10.438 69.406 11.11 69.826 11.938L67.918 13.252C67.702 12.772 67.42 12.394 67.072 12.118C66.724 11.83 66.352 11.632 65.956 11.524C65.56 11.404 65.17 11.344 64.786 11.344C64.162 11.344 63.616 11.47 63.148 11.722C62.692 11.974 62.308 12.304 61.996 12.712C61.684 13.12 61.45 13.576 61.294 14.08C61.15 14.584 61.078 15.088 61.078 15.592C61.078 16.156 61.168 16.702 61.348 17.23C61.528 17.746 61.78 18.208 62.104 18.616C62.44 19.012 62.836 19.33 63.292 19.57C63.76 19.798 64.27 19.912 64.822 19.912C65.218 19.912 65.62 19.846 66.028 19.714C66.436 19.582 66.814 19.372 67.162 19.084C67.51 18.796 67.78 18.424 67.972 17.968L70.006 19.138C69.754 19.774 69.34 20.314 68.764 20.758C68.2 21.202 67.564 21.538 66.856 21.766C66.148 21.994 65.446 22.108 64.75 22.108C63.838 22.108 63.004 21.922 62.248 21.55C61.492 21.166 60.838 20.662 60.286 20.038C59.746 19.402 59.32 18.694 59.008 17.914C58.708 17.122 58.558 16.324 58.558 15.52ZM76.9676 22.09C76.0316 22.09 75.1796 21.91 74.4116 21.55C73.6556 21.19 73.0016 20.704 72.4496 20.092C71.9096 19.468 71.4896 18.772 71.1896 18.004C70.8896 17.224 70.7396 16.426 70.7396 15.61C70.7396 14.758 70.8956 13.948 71.2076 13.18C71.5316 12.4 71.9696 11.71 72.5216 11.11C73.0856 10.498 73.7456 10.018 74.5016 9.67C75.2696 9.31 76.1096 9.13 77.0216 9.13C77.9456 9.13 78.7856 9.316 79.5416 9.688C80.3096 10.06 80.9636 10.558 81.5036 11.182C82.0436 11.806 82.4636 12.502 82.7636 13.27C83.0636 14.038 83.2136 14.83 83.2136 15.646C83.2136 16.486 83.0576 17.296 82.7456 18.076C82.4336 18.844 81.9956 19.534 81.4316 20.146C80.8796 20.746 80.2196 21.22 79.4516 21.568C78.6956 21.916 77.8676 22.09 76.9676 22.09ZM73.2596 15.61C73.2596 16.162 73.3436 16.696 73.5116 17.212C73.6796 17.728 73.9196 18.19 74.2316 18.598C74.5556 18.994 74.9456 19.312 75.4016 19.552C75.8696 19.78 76.3976 19.894 76.9856 19.894C77.5856 19.894 78.1196 19.774 78.5876 19.534C79.0556 19.282 79.4456 18.952 79.7576 18.544C80.0696 18.124 80.3036 17.662 80.4596 17.158C80.6276 16.642 80.7116 16.126 80.7116 15.61C80.7116 15.058 80.6216 14.53 80.4416 14.026C80.2736 13.51 80.0276 13.054 79.7036 12.658C79.3916 12.25 79.0016 11.932 78.5336 11.704C78.0776 11.464 77.5616 11.344 76.9856 11.344C76.3736 11.344 75.8336 11.47 75.3656 11.722C74.9096 11.962 74.5256 12.286 74.2136 12.694C73.9016 13.102 73.6616 13.558 73.4936 14.062C73.3376 14.566 73.2596 15.082 73.2596 15.61ZM95.5411 22V13.612L92.2651 19.858H90.8791L87.6031 13.612V22H85.1191V9.22H87.7831L91.5631 16.492L95.3791 9.22H98.0251V22H95.5411ZM100.693 22V9.22H109.279V11.398H103.177V14.692H108.253V16.708H103.177V22H100.693ZM116.29 22.09C115.354 22.09 114.502 21.91 113.734 21.55C112.978 21.19 112.324 20.704 111.772 20.092C111.232 19.468 110.812 18.772 110.512 18.004C110.212 17.224 110.062 16.426 110.062 15.61C110.062 14.758 110.218 13.948 110.53 13.18C110.854 12.4 111.292 11.71 111.844 11.11C112.408 10.498 113.068 10.018 113.824 9.67C114.592 9.31 115.432 9.13 116.344 9.13C117.268 9.13 118.108 9.316 118.864 9.688C119.632 10.06 120.286 10.558 120.826 11.182C121.366 11.806 121.786 12.502 122.086 13.27C122.386 14.038 122.536 14.83 122.536 15.646C122.536 16.486 122.38 17.296 122.068 18.076C121.756 18.844 121.318 19.534 120.754 20.146C120.202 20.746 119.542 21.22 118.774 21.568C118.018 21.916 117.19 22.09 116.29 22.09ZM112.582 15.61C112.582 16.162 112.666 16.696 112.834 17.212C113.002 17.728 113.242 18.19 113.554 18.598C113.878 18.994 114.268 19.312 114.724 19.552C115.192 19.78 115.72 19.894 116.308 19.894C116.908 19.894 117.442 19.774 117.91 19.534C118.378 19.282 118.768 18.952 119.08 18.544C119.392 18.124 119.626 17.662 119.782 17.158C119.95 16.642 120.034 16.126 120.034 15.61C120.034 15.058 119.944 14.53 119.764 14.026C119.596 13.51 119.35 13.054 119.026 12.658C118.714 12.25 118.324 11.932 117.856 11.704C117.4 11.464 116.884 11.344 116.308 11.344C115.696 11.344 115.156 11.47 114.688 11.722C114.232 11.962 113.848 12.286 113.536 12.694C113.224 13.102 112.984 13.558 112.816 14.062C112.66 14.566 112.582 15.082 112.582 15.61ZM124.441 22V9.22H130.093C130.681 9.22 131.221 9.34 131.713 9.58C132.217 9.82 132.649 10.144 133.009 10.552C133.381 10.96 133.663 11.416 133.855 11.92C134.059 12.424 134.161 12.94 134.161 13.468C134.161 14.008 134.065 14.53 133.873 15.034C133.693 15.526 133.429 15.958 133.081 16.33C132.733 16.702 132.325 16.99 131.857 17.194L134.773 22H132.037L129.409 17.716H126.925V22H124.441ZM126.925 15.538H130.039C130.351 15.538 130.627 15.448 130.867 15.268C131.107 15.076 131.299 14.824 131.443 14.512C131.587 14.2 131.659 13.852 131.659 13.468C131.659 13.06 131.575 12.706 131.407 12.406C131.239 12.094 131.023 11.848 130.759 11.668C130.507 11.488 130.231 11.398 129.931 11.398H126.925V15.538ZM145.829 11.398H141.743V22H139.277V11.398H135.191V9.22H145.829V11.398Z" fill="#137AAA"/>
<path d="M58.26 36L61.02 32.34L58.43 28.9H59.25L61.61 32.06H62.58V28.9H63.27V32.06H64.23L66.6 28.9H67.42L64.82 32.34L67.58 36H66.77L64.25 32.7H63.27V36H62.58V32.7H61.59L59.07 36H58.26ZM70.9435 28.9H71.5335L74.4835 36H73.7435L72.8235 33.78H69.6335L68.7235 36H67.9735L70.9435 28.9ZM72.6635 33.23L71.2335 29.72L69.7835 33.23H72.6635ZM80.3013 36V29.52H77.4013L77.3613 31.02C77.328 32 77.258 32.8133 77.1513 33.46C77.0447 34.1067 76.8947 34.6167 76.7013 34.99C76.508 35.3567 76.2713 35.62 75.9913 35.78C75.7113 35.9333 75.378 36.01 74.9913 36.01V35.39C75.2513 35.39 75.4813 35.3233 75.6813 35.19C75.8813 35.0567 76.0513 34.8233 76.1913 34.49C76.3313 34.1567 76.4413 33.6967 76.5213 33.11C76.608 32.5167 76.6647 31.7667 76.6913 30.86L76.7513 28.9H80.9913V36H80.3013ZM88.007 36.05C87.407 36.05 86.877 35.9133 86.417 35.64C85.957 35.36 85.587 34.9733 85.307 34.48C85.0336 33.9867 84.8803 33.41 84.847 32.75H83.467V36H82.767V28.9H83.467V32.12H84.847C84.8936 31.4467 85.057 30.8667 85.337 30.38C85.6236 29.8933 85.997 29.5167 86.457 29.25C86.9236 28.9833 87.4403 28.85 88.007 28.85C88.6536 28.85 89.2203 29.0067 89.707 29.32C90.1936 29.6267 90.5736 30.05 90.847 30.59C91.1203 31.13 91.257 31.7533 91.257 32.46C91.257 33.2133 91.1136 33.8567 90.827 34.39C90.5403 34.9233 90.1503 35.3333 89.657 35.62C89.1703 35.9067 88.6203 36.05 88.007 36.05ZM88.007 35.42C88.527 35.42 88.9736 35.2933 89.347 35.04C89.727 34.78 90.0203 34.4267 90.227 33.98C90.4403 33.5333 90.547 33.0233 90.547 32.45C90.547 31.8433 90.437 31.32 90.217 30.88C89.997 30.4333 89.697 30.09 89.317 29.85C88.937 29.61 88.5003 29.49 88.007 29.49C87.5003 29.49 87.0603 29.6167 86.687 29.87C86.3203 30.1167 86.0336 30.4633 85.827 30.91C85.627 31.3567 85.527 31.87 85.527 32.45C85.527 33.05 85.6303 33.5733 85.837 34.02C86.0503 34.4667 86.3436 34.8133 86.717 35.06C87.0903 35.3 87.5203 35.42 88.007 35.42ZM94.3516 36.09C93.865 36.09 93.4283 35.9867 93.0416 35.78C92.655 35.5667 92.3516 35.2733 92.1316 34.9L92.6716 34.57C92.8383 34.8633 93.065 35.09 93.3516 35.25C93.6383 35.41 93.9683 35.49 94.3416 35.49C94.8483 35.49 95.2483 35.36 95.5416 35.1C95.8416 34.8333 95.9916 34.48 95.9916 34.04C95.9916 33.76 95.9283 33.5133 95.8016 33.3C95.6816 33.08 95.5083 32.91 95.2816 32.79C95.055 32.67 94.7816 32.61 94.4616 32.61H93.7816V32.05H94.4716C94.7183 32.05 94.935 31.9933 95.1216 31.88C95.3083 31.76 95.455 31.6033 95.5616 31.41C95.6683 31.2167 95.7216 31 95.7216 30.76C95.7216 30.5 95.6616 30.2733 95.5416 30.08C95.4283 29.8867 95.265 29.7333 95.0516 29.62C94.845 29.5067 94.6016 29.45 94.3216 29.45C93.9816 29.45 93.6816 29.5267 93.4216 29.68C93.1616 29.8333 92.955 30.0467 92.8016 30.32L92.2916 29.98C92.4983 29.6133 92.7716 29.3267 93.1116 29.12C93.4583 28.9133 93.8716 28.81 94.3516 28.81C94.7583 28.81 95.1116 28.89 95.4116 29.05C95.7183 29.2033 95.9583 29.42 96.1316 29.7C96.3116 29.9733 96.4016 30.2967 96.4016 30.67C96.4016 31.03 96.3116 31.3567 96.1316 31.65C95.9583 31.9367 95.705 32.1533 95.3716 32.3C95.7916 32.4133 96.115 32.6333 96.3416 32.96C96.575 33.2867 96.6916 33.6667 96.6916 34.1C96.6916 34.5133 96.5916 34.87 96.3916 35.17C96.1916 35.4633 95.915 35.69 95.5616 35.85C95.215 36.01 94.8116 36.09 94.3516 36.09ZM98.0609 36V28.9H98.7509V35.04L103.151 28.9H103.801V36H103.111V29.97L98.7609 36H98.0609Z" fill="#11B9A5"/>
</svg>
