<svg width="158" height="141" viewBox="0 0 158 141" fill="none" xmlns="http://www.w3.org/2000/svg">
<path d="M90.4965 -34C40.5157 -34 0 1.79889 0 45.9678C0 68.3633 10.4468 88.5815 27.2295 103.102C23.5494 124.38 -0.197776 133.005 1.43387 138.865C21.494 147.172 61.6777 128.884 71.4888 124.14C77.6269 125.299 83.9769 125.943 90.4965 125.943C140.477 125.943 181 90.1438 181 45.9678C181 1.79182 140.477 -34 90.4965 -34ZM84.0829 49.2975C84.0829 71.0426 74.4696 83.2442 55.5255 85.5559C55.4831 85.5629 55.4549 85.5629 55.4125 85.5629C55.2076 85.5629 54.9816 85.4852 54.8333 85.3438C54.6426 85.1812 54.5296 84.9338 54.5296 84.6793V73.63C54.5296 73.3048 54.7061 73.0079 54.9816 72.8594C63.6202 68.1442 67.9359 60.7214 68.1549 50.1882H55.4125C54.9322 50.1882 54.5296 49.7923 54.5296 49.3045V21.501C54.5296 21.0132 54.9322 20.6174 55.4125 20.6174H83.2C83.6803 20.6174 84.0829 21.0132 84.0829 21.501V49.2975ZM133.28 49.2975C133.28 70.7104 124.768 81.5547 104.793 85.5488C104.736 85.5559 104.68 85.5629 104.623 85.5629C104.418 85.5629 104.221 85.4922 104.058 85.365C103.853 85.2024 103.74 84.9408 103.74 84.6793V73.63C103.74 73.3048 103.917 73.0079 104.192 72.8594C112.831 68.1442 117.147 60.7214 117.366 50.1882H104.623C104.143 50.1882 103.74 49.7923 103.74 49.3045V21.501C103.74 21.0132 104.143 20.6174 104.623 20.6174H132.397C132.891 20.6174 133.28 21.0132 133.28 21.501V49.2975Z" fill="#F5F6EE"/>
</svg>
