<svg width="34" height="32" viewBox="0 0 34 32" fill="none" xmlns="http://www.w3.org/2000/svg">
<g clip-path="url(#clip0_5_786)">
<path d="M16.5617 0C7.41476 0 0 6.54608 0 14.6227C0 18.7179 1.91186 22.4149 4.98325 25.0701C4.30976 28.961 -0.0361948 30.5381 0.262412 31.6097C3.9336 33.1286 11.2876 29.7844 13.0831 28.917C14.2065 29.129 15.3686 29.2467 16.5617 29.2467C25.7086 29.2467 33.1247 22.7006 33.1247 14.6227C33.1247 6.54479 25.7086 0 16.5617 0ZM15.388 15.2315C15.388 19.2078 13.6286 21.4389 10.1617 21.8616C10.1539 21.8629 10.1488 21.8629 10.141 21.8629C10.1035 21.8629 10.0621 21.8487 10.035 21.8229C10.0001 21.7931 9.97942 21.7479 9.97942 21.7014V19.6809C9.97942 19.6214 10.0117 19.5672 10.0621 19.54C11.6431 18.6778 12.4329 17.3205 12.473 15.3944H10.141C10.0531 15.3944 9.97942 15.322 9.97942 15.2328V10.1488C9.97942 10.0596 10.0531 9.98717 10.141 9.98717H15.2264C15.3143 9.98717 15.388 10.0596 15.388 10.1488V15.2315ZM24.3914 15.2315C24.3914 19.147 22.8337 21.13 19.1781 21.8604C19.1677 21.8616 19.1574 21.8629 19.147 21.8629C19.1096 21.8629 19.0734 21.85 19.0436 21.8267C19.0061 21.797 18.9855 21.7492 18.9855 21.7014V19.6809C18.9855 19.6214 19.0178 19.5672 19.0682 19.54C20.6491 18.6778 21.4389 17.3205 21.479 15.3944H19.147C19.0591 15.3944 18.9855 15.322 18.9855 15.2328V10.1488C18.9855 10.0596 19.0591 9.98717 19.147 9.98717H24.2298C24.3203 9.98717 24.3914 10.0596 24.3914 10.1488V15.2315Z" fill="#94B428"/>
</g>
<defs>
<clipPath id="clip0_5_786">
<rect width="33.1247" height="32" fill="white"/>
</clipPath>
</defs>
</svg>
