<svg width="18" height="18" viewBox="0 0 18 18" fill="none" xmlns="http://www.w3.org/2000/svg">
<path d="M17.2152 9.58924C17.0196 9.58924 16.824 9.511 16.6675 9.37408L9.00006 1.88264L1.33258 9.37408C1.01962 9.66748 0.530622 9.66748 0.217663 9.35452C-0.0757354 9.04156 -0.0757354 8.55257 0.237223 8.23961L8.45238 0.220049C8.76534 -0.0733496 9.23478 -0.0733496 9.54774 0.220049L17.7629 8.23961C18.0759 8.53301 18.0759 9.04156 17.7825 9.35452C17.626 9.511 17.4108 9.58924 17.2152 9.58924ZM15.4939 17.2176V9.56968C15.4939 9.13937 15.1419 8.78729 14.7115 8.78729C14.2812 8.78729 13.9292 9.13937 13.9292 9.56968V16.4352H11.4842V12.2494C11.4842 11.6822 11.0147 11.2127 10.4475 11.2127H7.55263C6.98539 11.2127 6.51595 11.6822 6.51595 12.2494V16.4352H4.07096V9.56968C4.07096 9.13937 3.71889 8.78729 3.28857 8.78729C2.85825 8.78729 2.50617 9.13937 2.50617 9.56968V17.2176C2.50617 17.6479 2.85825 18 3.28857 18H7.29835C7.72867 18 8.08074 17.6479 8.08074 17.2176V12.7775H9.93893V17.2176C9.93893 17.6479 10.291 18 10.7213 18H14.7311C15.1614 18 15.4939 17.6479 15.4939 17.2176Z" fill="#94B428"/>
</svg>
