<svg width="32" height="32" viewBox="0 0 32 32" fill="none" xmlns="http://www.w3.org/2000/svg">
<path d="M27.3238 4.69597C24.3046 1.67167 20.2869 0.00414998 15.9992 0C7.18492 0 0.0075296 7.16987 7.75878e-06 15.9839C-0.00414222 20.2581 1.65663 24.2777 4.67522 27.303C7.69485 30.3265 11.6967 32 15.9707 32H16.0078V31.9984C24.7588 31.9984 31.9943 24.827 32.0008 16.0135C32.0049 11.7395 30.3418 7.72052 27.3238 4.69597ZM16.7102 24.4538C16.5263 24.6395 16.2692 24.7458 16.0052 24.7458C15.7401 24.7453 15.4823 24.6384 15.2963 24.4501C15.1117 24.267 15.0056 24.0097 15.0058 23.7449C15.0063 23.4809 15.1137 23.222 15.2997 23.0366C15.4849 22.8519 15.7578 22.7455 16.0078 22.7455C16.2711 22.7455 16.5284 22.8524 16.712 23.0376C16.8998 23.2269 17.0074 23.486 17.0069 23.7465C17.0066 24.0079 16.8985 24.2655 16.7102 24.4538ZM17.1916 18.3292C17.0774 18.3543 16.9957 18.4555 16.9955 18.5725L16.9942 19.7474C16.9937 20.2978 16.5457 20.7465 15.9933 20.7465C15.4413 20.746 14.9939 20.2965 14.9944 19.7456L14.9967 17.4784C14.9973 16.9283 15.4452 16.5006 15.9964 16.5006H16.0008C17.9129 16.5006 19.4699 14.9236 19.472 13.0115C19.4728 12.085 19.113 11.2034 18.4578 10.5459C17.8003 9.88889 16.9296 9.52214 16.0013 9.5211C14.0889 9.5211 12.5314 11.0745 12.5293 12.9879C12.5288 13.5385 12.0803 13.9852 11.5281 13.9852C11.261 13.9852 11.0097 13.8799 10.8213 13.6905C10.6323 13.5017 10.529 13.2504 10.5293 12.9835C10.5321 9.96878 12.9866 7.51562 16.0052 7.51562C19.0225 7.51873 21.4744 9.97552 21.4715 12.9923C21.4694 15.5323 19.6701 17.777 17.1916 18.3292Z" fill="#707576"/>
</svg>
