<svg width="33" height="32" viewBox="0 0 33 32" fill="none" xmlns="http://www.w3.org/2000/svg">
<rect x="0.94104" width="32" height="32" rx="16" fill="#CC00FF"/>
<path d="M16.941 13.3C16.225 13.3 15.5382 13.5845 15.0319 14.0908C14.5255 14.5972 14.241 15.2839 14.241 16C14.241 16.7161 14.5255 17.4028 15.0319 17.9092C15.5382 18.4155 16.225 18.7 16.941 18.7C17.6571 18.7 18.3439 18.4155 18.8502 17.9092C19.3566 17.4028 19.641 16.7161 19.641 16C19.641 15.2839 19.3566 14.5972 18.8502 14.0908C18.3439 13.5845 17.6571 13.3 16.941 13.3ZM16.941 11.5C18.1345 11.5 19.2791 11.9741 20.123 12.818C20.9669 13.6619 21.441 14.8065 21.441 16C21.441 17.1935 20.9669 18.3381 20.123 19.182C19.2791 20.0259 18.1345 20.5 16.941 20.5C15.7476 20.5 14.603 20.0259 13.7591 19.182C12.9151 18.3381 12.441 17.1935 12.441 16C12.441 14.8065 12.9151 13.6619 13.7591 12.818C14.603 11.9741 15.7476 11.5 16.941 11.5ZM22.791 11.275C22.791 11.5734 22.6725 11.8595 22.4615 12.0705C22.2506 12.2815 21.9644 12.4 21.666 12.4C21.3677 12.4 21.0815 12.2815 20.8705 12.0705C20.6596 11.8595 20.541 11.5734 20.541 11.275C20.541 10.9766 20.6596 10.6905 20.8705 10.4795C21.0815 10.2685 21.3677 10.15 21.666 10.15C21.9644 10.15 22.2506 10.2685 22.4615 10.4795C22.6725 10.6905 22.791 10.9766 22.791 11.275ZM16.941 8.8C14.7144 8.8 14.3508 8.8063 13.3149 8.8522C12.6093 8.8855 12.1359 8.98 11.6967 9.151C11.3061 9.3022 11.0244 9.4831 10.7247 9.7837C10.443 10.0559 10.2265 10.3881 10.0911 10.7557C9.92014 11.1967 9.82564 11.6692 9.79324 12.3739C9.74644 13.3675 9.74104 13.7149 9.74104 16C9.74104 18.2266 9.74734 18.5902 9.79324 19.6261C9.82654 20.3308 9.92104 20.8051 10.0911 21.2434C10.2441 21.6349 10.4241 21.9166 10.7229 22.2154C11.0262 22.5178 11.3079 22.6987 11.6949 22.8481C12.1395 23.02 12.6129 23.1154 13.3149 23.1478C14.3085 23.1946 14.6559 23.2 16.941 23.2C19.1676 23.2 19.5312 23.1937 20.5671 23.1478C21.2709 23.1145 21.7452 23.02 22.1844 22.8499C22.5741 22.6978 22.8576 22.5169 23.1564 22.2181C23.4597 21.9148 23.6406 21.6331 23.79 21.2461C23.961 20.8024 24.0564 20.3281 24.0888 19.6261C24.1356 18.6325 24.141 18.2851 24.141 16C24.141 13.7734 24.1347 13.4098 24.0888 12.3739C24.0555 11.6701 23.961 11.1949 23.79 10.7557C23.6544 10.3885 23.4382 10.0564 23.1573 9.7837C22.8853 9.50186 22.553 9.28525 22.1853 9.1501C21.7443 8.9791 21.2709 8.8846 20.5671 8.8522C19.5735 8.8054 19.2261 8.8 16.941 8.8ZM16.941 7C19.3863 7 19.6914 7.009 20.6508 7.054C21.6093 7.099 22.2618 7.2493 22.836 7.4725C23.43 7.7011 23.9304 8.0107 24.4308 8.5102C24.8885 8.96011 25.2426 9.50433 25.4685 10.105C25.6908 10.6783 25.842 11.3317 25.887 12.2902C25.9293 13.2496 25.941 13.5547 25.941 16C25.941 18.4453 25.932 18.7504 25.887 19.7098C25.842 20.6683 25.6908 21.3208 25.4685 21.895C25.2432 22.496 24.889 23.0404 24.4308 23.4898C23.9808 23.9473 23.4366 24.3014 22.836 24.5275C22.2627 24.7498 21.6093 24.901 20.6508 24.946C19.6914 24.9883 19.3863 25 16.941 25C14.4957 25 14.1906 24.991 13.2312 24.946C12.2727 24.901 11.6202 24.7498 11.046 24.5275C10.4451 24.302 9.90081 23.9478 9.45124 23.4898C8.99351 23.04 8.63938 22.4957 8.41354 21.895C8.19034 21.3217 8.04004 20.6683 7.99504 19.7098C7.95274 18.7504 7.94104 18.4453 7.94104 16C7.94104 13.5547 7.95004 13.2496 7.99504 12.2902C8.04004 11.3308 8.19034 10.6792 8.41354 10.105C8.63875 9.50396 8.99296 8.95959 9.45124 8.5102C9.90094 8.05231 10.4452 7.69816 11.046 7.4725C11.6202 7.2493 12.2718 7.099 13.2312 7.054C14.1906 7.0117 14.4957 7 16.941 7Z" fill="white"/>
</svg>
