<svg width="19" height="18" viewBox="0 0 19 18" fill="none" xmlns="http://www.w3.org/2000/svg">
<path d="M16.5074 17.25H3.00739C1.73239 17.25 0.757385 16.275 0.757385 15V4.5C0.757385 3.225 1.73239 2.25 3.00739 2.25H16.5074C17.7824 2.25 18.7574 3.225 18.7574 4.5V15C18.7574 16.275 17.7824 17.25 16.5074 17.25ZM3.00739 3.75C2.55739 3.75 2.25739 4.05 2.25739 4.5V15C2.25739 15.45 2.55739 15.75 3.00739 15.75H16.5074C16.9574 15.75 17.2574 15.45 17.2574 15V4.5C17.2574 4.05 16.9574 3.75 16.5074 3.75H3.00739Z" fill="#94B428"/>
<path d="M5.25739 5.25C4.80739 5.25 4.50739 4.95 4.50739 4.5V1.5C4.50739 1.05 4.80739 0.75 5.25739 0.75C5.70739 0.75 6.00739 1.05 6.00739 1.5V4.5C6.00739 4.95 5.70739 5.25 5.25739 5.25Z" fill="#94B428"/>
<path d="M14.2574 5.25C13.8074 5.25 13.5074 4.95 13.5074 4.5V1.5C13.5074 1.05 13.8074 0.75 14.2574 0.75C14.7074 0.75 15.0074 1.05 15.0074 1.5V4.5C15.0074 4.95 14.7074 5.25 14.2574 5.25Z" fill="#94B428"/>
<path d="M18.0074 8.25H1.50739C1.05739 8.25 0.757385 7.95 0.757385 7.5C0.757385 7.05 1.05739 6.75 1.50739 6.75H18.0074C18.4574 6.75 18.7574 7.05 18.7574 7.5C18.7574 7.95 18.4574 8.25 18.0074 8.25Z" fill="#94B428"/>
<path d="M5.25739 11.25C5.6716 11.25 6.00739 10.9142 6.00739 10.5C6.00739 10.0858 5.6716 9.75 5.25739 9.75C4.84317 9.75 4.50739 10.0858 4.50739 10.5C4.50739 10.9142 4.84317 11.25 5.25739 11.25Z" fill="#94B428"/>
<path d="M5.25739 11.625C4.65739 11.625 4.13239 11.1 4.13239 10.5C4.13239 9.9 4.65739 9.375 5.25739 9.375C5.85739 9.375 6.38239 9.9 6.38239 10.5C6.38239 11.1 5.85739 11.625 5.25739 11.625ZM5.25739 10.125C5.03239 10.125 4.88239 10.275 4.88239 10.5C4.88239 10.725 5.03239 10.875 5.25739 10.875C5.48239 10.875 5.63239 10.725 5.63239 10.5C5.63239 10.275 5.48239 10.125 5.25739 10.125Z" fill="#94B428"/>
<path d="M5.25739 14.25C5.6716 14.25 6.00739 13.9142 6.00739 13.5C6.00739 13.0858 5.6716 12.75 5.25739 12.75C4.84317 12.75 4.50739 13.0858 4.50739 13.5C4.50739 13.9142 4.84317 14.25 5.25739 14.25Z" fill="#94B428"/>
<path d="M5.25739 14.625C4.65739 14.625 4.13239 14.1 4.13239 13.5C4.13239 12.9 4.65739 12.375 5.25739 12.375C5.85739 12.375 6.38239 12.9 6.38239 13.5C6.38239 14.1 5.85739 14.625 5.25739 14.625ZM5.25739 13.125C5.03239 13.125 4.88239 13.275 4.88239 13.5C4.88239 13.725 5.03239 13.875 5.25739 13.875C5.48239 13.875 5.63239 13.725 5.63239 13.5C5.63239 13.275 5.48239 13.125 5.25739 13.125Z" fill="#94B428"/>
<path d="M8.25739 14.25C8.6716 14.25 9.00739 13.9142 9.00739 13.5C9.00739 13.0858 8.6716 12.75 8.25739 12.75C7.84317 12.75 7.50739 13.0858 7.50739 13.5C7.50739 13.9142 7.84317 14.25 8.25739 14.25Z" fill="#94B428"/>
<path d="M8.25739 14.625C7.65739 14.625 7.13239 14.1 7.13239 13.5C7.13239 12.9 7.65739 12.375 8.25739 12.375C8.85739 12.375 9.38239 12.9 9.38239 13.5C9.38239 14.1 8.85739 14.625 8.25739 14.625ZM8.25739 13.125C8.03239 13.125 7.88239 13.275 7.88239 13.5C7.88239 13.725 8.03239 13.875 8.25739 13.875C8.48239 13.875 8.63239 13.725 8.63239 13.5C8.63239 13.275 8.48239 13.125 8.25739 13.125Z" fill="#94B428"/>
<path d="M8.25739 11.25C8.6716 11.25 9.00739 10.9142 9.00739 10.5C9.00739 10.0858 8.6716 9.75 8.25739 9.75C7.84317 9.75 7.50739 10.0858 7.50739 10.5C7.50739 10.9142 7.84317 11.25 8.25739 11.25Z" fill="#94B428"/>
<path d="M8.25739 11.625C7.65739 11.625 7.13239 11.1 7.13239 10.5C7.13239 9.9 7.65739 9.375 8.25739 9.375C8.85739 9.375 9.38239 9.9 9.38239 10.5C9.38239 11.1 8.85739 11.625 8.25739 11.625ZM8.25739 10.125C8.03239 10.125 7.88239 10.275 7.88239 10.5C7.88239 10.725 8.03239 10.875 8.25739 10.875C8.48239 10.875 8.63239 10.725 8.63239 10.5C8.63239 10.275 8.48239 10.125 8.25739 10.125Z" fill="#94B428"/>
<path d="M11.2574 11.25C11.6716 11.25 12.0074 10.9142 12.0074 10.5C12.0074 10.0858 11.6716 9.75 11.2574 9.75C10.8432 9.75 10.5074 10.0858 10.5074 10.5C10.5074 10.9142 10.8432 11.25 11.2574 11.25Z" fill="#94B428"/>
<path d="M11.2574 11.625C10.6574 11.625 10.1324 11.1 10.1324 10.5C10.1324 9.9 10.6574 9.375 11.2574 9.375C11.8574 9.375 12.3824 9.9 12.3824 10.5C12.3824 11.1 11.8574 11.625 11.2574 11.625ZM11.2574 10.125C11.0324 10.125 10.8824 10.275 10.8824 10.5C10.8824 10.725 11.0324 10.875 11.2574 10.875C11.4824 10.875 11.6324 10.725 11.6324 10.5C11.6324 10.275 11.4824 10.125 11.2574 10.125Z" fill="#94B428"/>
<path d="M11.2574 14.25C11.6716 14.25 12.0074 13.9142 12.0074 13.5C12.0074 13.0858 11.6716 12.75 11.2574 12.75C10.8432 12.75 10.5074 13.0858 10.5074 13.5C10.5074 13.9142 10.8432 14.25 11.2574 14.25Z" fill="#94B428"/>
<path d="M11.2574 14.625C10.6574 14.625 10.1324 14.1 10.1324 13.5C10.1324 12.9 10.6574 12.375 11.2574 12.375C11.8574 12.375 12.3824 12.9 12.3824 13.5C12.3824 14.1 11.8574 14.625 11.2574 14.625ZM11.2574 13.125C11.0324 13.125 10.8824 13.275 10.8824 13.5C10.8824 13.725 11.0324 13.875 11.2574 13.875C11.4824 13.875 11.6324 13.725 11.6324 13.5C11.6324 13.275 11.4824 13.125 11.2574 13.125Z" fill="#94B428"/>
<path d="M14.2574 14.25C14.6716 14.25 15.0074 13.9142 15.0074 13.5C15.0074 13.0858 14.6716 12.75 14.2574 12.75C13.8432 12.75 13.5074 13.0858 13.5074 13.5C13.5074 13.9142 13.8432 14.25 14.2574 14.25Z" fill="#94B428"/>
<path d="M14.2574 14.625C13.6574 14.625 13.1324 14.1 13.1324 13.5C13.1324 12.9 13.6574 12.375 14.2574 12.375C14.8574 12.375 15.3824 12.9 15.3824 13.5C15.3824 14.1 14.8574 14.625 14.2574 14.625ZM14.2574 13.125C14.0324 13.125 13.8824 13.275 13.8824 13.5C13.8824 13.725 14.0324 13.875 14.2574 13.875C14.4824 13.875 14.6324 13.725 14.6324 13.5C14.6324 13.275 14.4824 13.125 14.2574 13.125Z" fill="#94B428"/>
<path d="M14.2574 11.25C14.6716 11.25 15.0074 10.9142 15.0074 10.5C15.0074 10.0858 14.6716 9.75 14.2574 9.75C13.8432 9.75 13.5074 10.0858 13.5074 10.5C13.5074 10.9142 13.8432 11.25 14.2574 11.25Z" fill="#94B428"/>
<path d="M14.2574 11.625C13.6574 11.625 13.1324 11.1 13.1324 10.5C13.1324 9.9 13.6574 9.375 14.2574 9.375C14.8574 9.375 15.3824 9.9 15.3824 10.5C15.3824 11.1 14.8574 11.625 14.2574 11.625ZM14.2574 10.125C14.0324 10.125 13.8824 10.275 13.8824 10.5C13.8824 10.725 14.0324 10.875 14.2574 10.875C14.4824 10.875 14.6324 10.725 14.6324 10.5C14.6324 10.275 14.4824 10.125 14.2574 10.125Z" fill="#94B428"/>
</svg>
