<svg width="124" height="61" viewBox="0 0 124 61" fill="none" xmlns="http://www.w3.org/2000/svg">
<path fill-rule="evenodd" clip-rule="evenodd" d="M58.8318 7.79785C91.3294 7.79785 117.664 19.7022 117.664 34.399C117.664 49.0847 91.3294 61.0001 58.8318 61.0001C26.3452 61.0001 0 49.0847 0 34.399C0 19.7022 26.3452 7.79785 58.8318 7.79785ZM58.8318 10.1231C88.4813 10.1231 112.524 20.9927 112.524 34.399C112.524 47.8052 88.4813 58.6749 58.8318 58.6749C29.1823 58.6749 5.15112 47.8052 5.15112 34.399C5.15112 20.9927 29.1823 10.1231 58.8318 10.1231Z" fill="url(#paint0_linear_1_36)"/>
<path fill-rule="evenodd" clip-rule="evenodd" d="M24.8989 21.0483L31.7078 25.1313L49.2972 3.57007L56.7068 9.70023L60.356 7.70876L71.437 18.99L74.9193 16.6203L104.524 45.046L77.5672 25.3983L81.45 36.001L67.4429 20.2584L68.3886 27.0227L59.6773 15.6746L56.3174 29.8931L54.2147 20.9259L51.3666 25.6431L50.3653 15.0627L46.9275 20.7256L46.0374 14.6956L27.9918 45.6691L29.7052 35.3891L25.522 38.3707L26.0004 28.7471L18.3905 34.6659L20.5711 30.1044L8.94494 37.9702L24.8989 21.0483Z" fill="#23ABDD" stroke="white" stroke-width="2.99999" stroke-linejoin="round"/>
<path fill-rule="evenodd" clip-rule="evenodd" d="M24.8989 21.0483L31.7078 25.1313L49.2972 3.57007L56.7068 9.70023L60.356 7.70876L71.437 18.99L74.9193 16.6203L104.524 45.046L77.5672 25.3983L81.45 36.001L67.4429 20.2584L68.3886 27.0227L59.6773 15.6746L56.3174 29.8931L54.2147 20.9259L51.3666 25.6431L50.3653 15.0627L46.9275 20.7256L46.0374 14.6956L27.9918 45.6691L29.7052 35.3891L25.522 38.3707L26.0004 28.7471L18.3905 34.6659L20.5711 30.1044L8.94494 37.9702L24.8989 21.0483Z" fill="#23ABDD"/>
<path fill-rule="evenodd" clip-rule="evenodd" d="M23.3636 54.3692C23.5305 53.6572 23.8309 52.7894 24.3315 52.4222V54.3692H23.3636ZM21.9062 51.7769C22.0508 51.7769 22.5292 51.2318 22.6738 51.0983L23.1856 50.631C24.198 49.5741 23.9199 49.385 24.6542 49.1847C24.6542 50.3195 24.0868 51.343 23.6863 52.0996C22.7851 53.8018 22.8518 54.1801 21.9062 54.2023C21.8394 51.4543 21.0606 52.8561 20.7714 51.7769C21.5724 51.3875 21.0829 51.7769 21.9062 51.7769ZM30.3282 38.0147L30.8177 31.8623L31.463 31.5285C31.463 30.6607 31.3295 30.6718 31.463 30.071L31.5965 30.2713C31.9525 30.8053 31.8858 30.8498 32.7536 31.0501C33.5769 30.5049 32.6534 30.9055 34.0552 30.2379C34.0107 30.7831 33.2653 32.285 32.9538 32.8636L31.3295 36.2568C31.1404 36.6462 31.0847 36.8687 30.8733 37.2581L30.3282 38.0147ZM35.6907 21.0037C36.1913 20.8925 38.1049 21.1817 38.1049 21.8159C38.1049 22.4723 34.8785 29.092 34.3779 29.4258C34.3779 28.5913 33.8105 26.4664 33.7437 25.5318C33.5212 22.7393 33.054 23.6405 32.9204 21.9828L35.6907 21.0037ZM7.32061 57.9294H45.0695V57.1172C44.5689 56.8836 43.6121 56.8057 42.8889 56.7056L38.3942 56.0158C37.5932 55.9156 36.8811 55.8823 36.0912 55.7376L33.8661 55.3594C33.4545 55.148 33.7326 55.0924 33.0428 54.8921L31.196 54.1467C30.9401 54.0354 30.4283 53.824 30.2948 53.7462C29.2601 53.1676 30.5618 53.1454 28.8708 52.7449C28.8708 51.4988 28.5036 51.2763 28.6927 50.4753C28.9153 49.5407 29.2045 49.5852 29.2045 48.3837C29.1934 46.8817 29.1489 47.1153 29.6829 46.1029C31.6966 42.2424 29.16 43.0323 30.4172 39.8838L33.1096 34.4768C33.4211 33.9761 33.6436 33.2641 33.9106 32.6967C34.2221 32.0291 34.5559 31.4506 34.834 30.8498C35.1233 30.2157 35.3792 29.626 35.6351 29.0697C35.8465 28.6247 35.9688 28.4356 36.1246 28.1018L39.0729 21.9828C39.9963 22.0495 39.2842 22.2275 40.2077 22.3054C40.7751 19.8689 40.0185 22.094 41.209 19.9023L41.9877 17.2767C41.6874 17.0764 40.7639 15.9528 39.5958 16.6648C39.5846 16.6759 39.262 16.9318 39.1396 17.0208C38.8949 17.1988 38.8949 17.1877 38.6501 17.3434C37.3595 18.189 37.5932 18.545 36.603 18.7008L32.2752 19.2237C31.9414 18.5339 31.9414 17.9776 32.2752 17.2767C31.5186 17.2211 31.9859 17.4547 31.6188 16.954C31.8524 15.9528 32.1194 16.3644 32.1194 14.8624C32.1083 13.9947 32.2084 13.2492 31.908 12.6262C31.374 11.5359 30.1502 10.9351 28.8708 10.6459V9.98947C30.0612 9.72246 30.4395 10.123 30.7843 8.9993C31.3295 7.24146 30.8956 7.45285 31.7856 7.24146C31.7856 6.60731 31.73 6.58506 31.6188 6.10666C32.9649 5.79515 33.7437 5.32787 33.8884 3.51441C32.4087 2.80238 31.8635 3.69242 30.4506 2.42411C28.4702 0.632902 26.323 0.332513 24.6208 2.68C23.7753 3.8593 23.9421 5.01636 23.931 5.10536C23.8754 5.53926 23.842 5.21662 23.6863 5.78402C24.7654 6.30692 24.6542 5.36125 24.3872 7.80887C24.3315 8.35402 24.4984 7.88674 24.0645 8.42077C23.5305 9.07718 23.6418 9.5667 23.3191 9.94497C23.1856 10.1007 22.1732 10.6236 21.9062 10.8016C21.6614 10.6459 21.5835 10.5012 21.3165 10.4345L20.827 10.5124C19.4029 10.835 19.2917 9.34419 16.5548 9.34419L16.1432 10.2231C15.598 11.4358 16.3212 10.7349 15.4756 12.4816C15.2976 12.8487 15.2531 13.0712 15.0974 13.3939C15.509 13.6609 15.7649 13.8389 15.9095 14.3618C14.4076 15.085 14.975 14.4619 14.0071 15.8637C13.4396 16.6759 13.1393 16.4423 11.8598 17.1209C11.8598 17.9331 11.96 18.3892 12.5385 18.5005C13.1281 18.6118 13.1281 17.9887 13.4953 19.2125C14.0293 21.0149 13.3173 19.7243 13.3173 22.4612C13.4174 22.3054 13.384 22.4167 13.473 22.1274C13.4842 22.0829 13.4842 21.9049 13.4842 21.8159H13.9625C14.0071 23.4069 14.3964 25.5986 14.8748 27.0672C15.1975 28.0462 15.9651 30.5939 17.2891 30.4827C25.0324 29.8597 21.6614 28.5468 23.1522 31.9068C23.8531 33.4643 23.2746 33.2084 23.9088 34.0651C25.7445 36.5127 24.8322 37.7588 24.8099 38.66C24.7988 39.3497 25.1993 40.8739 25.0769 41.3523L22.2288 44.6566C21.5613 45.1795 21.3499 45.6245 20.7269 46.2364C18.524 48.4393 18.6909 47.6716 17.0443 48.5394C17.4115 50.1081 18.5574 52.4667 19.3139 53.8797C18.1569 53.8797 17.1111 53.8908 16.1877 53.7684C8.52217 52.7449 7.32061 51.7436 7.32061 57.9294Z" fill="#998603" stroke="white" stroke-width="0.999996" stroke-linejoin="round"/>
<path fill-rule="evenodd" clip-rule="evenodd" d="M23.3636 54.3692C23.5305 53.6572 23.8309 52.7894 24.3315 52.4222V54.3692H23.3636ZM21.9062 51.7769C22.0508 51.7769 22.5292 51.2318 22.6738 51.0983L23.1856 50.631C24.198 49.5741 23.9199 49.385 24.6542 49.1847C24.6542 50.3195 24.0868 51.343 23.6863 52.0996C22.7851 53.8018 22.8518 54.1801 21.9062 54.2023C21.8394 51.4543 21.0606 52.8561 20.7714 51.7769C21.5724 51.3875 21.0829 51.7769 21.9062 51.7769ZM30.3282 38.0147L30.8177 31.8623L31.463 31.5285C31.463 30.6607 31.3295 30.6718 31.463 30.071L31.5965 30.2713C31.9525 30.8053 31.8858 30.8498 32.7536 31.0501C33.5769 30.5049 32.6534 30.9055 34.0552 30.2379C34.0107 30.7831 33.2653 32.285 32.9538 32.8636L31.3295 36.2568C31.1404 36.6462 31.0847 36.8687 30.8733 37.2581L30.3282 38.0147ZM35.6907 21.0037C36.1913 20.8925 38.1049 21.1817 38.1049 21.8159C38.1049 22.4723 34.8785 29.092 34.3779 29.4258C34.3779 28.5913 33.8105 26.4664 33.7437 25.5318C33.5212 22.7393 33.054 23.6405 32.9204 21.9828L35.6907 21.0037ZM7.32061 57.9294H45.0695V57.1172C44.5689 56.8836 43.6121 56.8057 42.8889 56.7056L38.3942 56.0158C37.5932 55.9156 36.8811 55.8823 36.0912 55.7376L33.8661 55.3594C33.4545 55.148 33.7326 55.0924 33.0428 54.8921L31.196 54.1467C30.9401 54.0354 30.4283 53.824 30.2948 53.7462C29.2601 53.1676 30.5618 53.1454 28.8708 52.7449C28.8708 51.4988 28.5036 51.2763 28.6927 50.4753C28.9153 49.5407 29.2045 49.5852 29.2045 48.3837C29.1934 46.8817 29.1489 47.1153 29.6829 46.1029C31.6966 42.2424 29.16 43.0323 30.4172 39.8838L33.1096 34.4768C33.4211 33.9761 33.6436 33.2641 33.9106 32.6967C34.2221 32.0291 34.5559 31.4506 34.834 30.8498C35.1233 30.2157 35.3792 29.626 35.6351 29.0697C35.8465 28.6247 35.9688 28.4356 36.1246 28.1018L39.0729 21.9828C39.9963 22.0495 39.2842 22.2275 40.2077 22.3054C40.7751 19.8689 40.0185 22.094 41.209 19.9023L41.9877 17.2767C41.6874 17.0764 40.7639 15.9528 39.5958 16.6648C39.5846 16.6759 39.262 16.9318 39.1396 17.0208C38.8949 17.1988 38.8949 17.1877 38.6501 17.3434C37.3595 18.189 37.5932 18.545 36.603 18.7008L32.2752 19.2237C31.9414 18.5339 31.9414 17.9776 32.2752 17.2767C31.5186 17.2211 31.9859 17.4547 31.6188 16.954C31.8524 15.9528 32.1194 16.3644 32.1194 14.8624C32.1083 13.9947 32.2084 13.2492 31.908 12.6262C31.374 11.5359 30.1502 10.9351 28.8708 10.6459V9.98947C30.0612 9.72246 30.4395 10.123 30.7843 8.9993C31.3295 7.24146 30.8956 7.45285 31.7856 7.24146C31.7856 6.60731 31.73 6.58506 31.6188 6.10666C32.9649 5.79515 33.7437 5.32787 33.8884 3.51441C32.4087 2.80238 31.8635 3.69242 30.4506 2.42411C28.4702 0.632902 26.323 0.332513 24.6208 2.68C23.7753 3.8593 23.9421 5.01636 23.931 5.10536C23.8754 5.53926 23.842 5.21662 23.6863 5.78402C24.7654 6.30692 24.6542 5.36125 24.3872 7.80887C24.3315 8.35402 24.4984 7.88674 24.0645 8.42077C23.5305 9.07718 23.6418 9.5667 23.3191 9.94497C23.1856 10.1007 22.1732 10.6236 21.9062 10.8016C21.6614 10.6459 21.5835 10.5012 21.3165 10.4345L20.827 10.5124C19.4029 10.835 19.2917 9.34419 16.5548 9.34419L16.1432 10.2231C15.598 11.4358 16.3212 10.7349 15.4756 12.4816C15.2976 12.8487 15.2531 13.0712 15.0974 13.3939C15.509 13.6609 15.7649 13.8389 15.9095 14.3618C14.4076 15.085 14.975 14.4619 14.0071 15.8637C13.4396 16.6759 13.1393 16.4423 11.8598 17.1209C11.8598 17.9331 11.96 18.3892 12.5385 18.5005C13.1281 18.6118 13.1281 17.9887 13.4953 19.2125C14.0293 21.0149 13.3173 19.7243 13.3173 22.4612C13.4174 22.3054 13.384 22.4167 13.473 22.1274C13.4842 22.0829 13.4842 21.9049 13.4842 21.8159H13.9625C14.0071 23.4069 14.3964 25.5986 14.8748 27.0672C15.1975 28.0462 15.9651 30.5939 17.2891 30.4827C25.0324 29.8597 21.6614 28.5468 23.1522 31.9068C23.8531 33.4643 23.2746 33.2084 23.9088 34.0651C25.7445 36.5127 24.8322 37.7588 24.8099 38.66C24.7988 39.3497 25.1993 40.8739 25.0769 41.3523L22.2288 44.6566C21.5613 45.1795 21.3499 45.6245 20.7269 46.2364C18.524 48.4393 18.6909 47.6716 17.0443 48.5394C17.4115 50.1081 18.5574 52.4667 19.3139 53.8797C18.1569 53.8797 17.1111 53.8908 16.1877 53.7684C8.52217 52.7449 7.32061 51.7436 7.32061 57.9294Z" fill="#998603" stroke="white" stroke-width="0.999996" stroke-linejoin="round"/>
<path fill-rule="evenodd" clip-rule="evenodd" d="M23.3636 54.3692C23.5305 53.6572 23.8309 52.7894 24.3315 52.4222V54.3692H23.3636ZM21.9062 51.7769C22.0508 51.7769 22.5292 51.2318 22.6738 51.0983L23.1856 50.631C24.198 49.5741 23.9199 49.385 24.6542 49.1847C24.6542 50.3195 24.0868 51.343 23.6863 52.0996C22.7851 53.8018 22.8518 54.1801 21.9062 54.2023C21.8394 51.4543 21.0606 52.8561 20.7714 51.7769C21.5724 51.3875 21.0829 51.7769 21.9062 51.7769ZM30.3282 38.0147L30.8177 31.8623L31.463 31.5285C31.463 30.6607 31.3295 30.6718 31.463 30.071L31.5965 30.2713C31.9525 30.8053 31.8858 30.8498 32.7536 31.0501C33.5769 30.5049 32.6534 30.9055 34.0552 30.2379C34.0107 30.7831 33.2653 32.285 32.9538 32.8636L31.3295 36.2568C31.1404 36.6462 31.0847 36.8687 30.8733 37.2581L30.3282 38.0147ZM35.6907 21.0037C36.1913 20.8925 38.1049 21.1817 38.1049 21.8159C38.1049 22.4723 34.8785 29.092 34.3779 29.4258C34.3779 28.5913 33.8105 26.4664 33.7437 25.5318C33.5212 22.7393 33.054 23.6405 32.9204 21.9828L35.6907 21.0037ZM7.32061 57.9294H45.0695V57.1172C44.5689 56.8836 43.6121 56.8057 42.8889 56.7056L38.3942 56.0158C37.5932 55.9156 36.8811 55.8823 36.0912 55.7376L33.8661 55.3594C33.4545 55.148 33.7326 55.0924 33.0428 54.8921L31.196 54.1467C30.9401 54.0354 30.4283 53.824 30.2948 53.7462C29.2601 53.1676 30.5618 53.1454 28.8708 52.7449C28.8708 51.4988 28.5036 51.2763 28.6927 50.4753C28.9153 49.5407 29.2045 49.5852 29.2045 48.3837C29.1934 46.8817 29.1489 47.1153 29.6829 46.1029C31.6966 42.2424 29.16 43.0323 30.4172 39.8838L33.1096 34.4768C33.4211 33.9761 33.6436 33.2641 33.9106 32.6967C34.2221 32.0291 34.5559 31.4506 34.834 30.8498C35.1233 30.2157 35.3792 29.626 35.6351 29.0697C35.8465 28.6247 35.9688 28.4356 36.1246 28.1018L39.0729 21.9828C39.9963 22.0495 39.2842 22.2275 40.2077 22.3054C40.7751 19.8689 40.0185 22.094 41.209 19.9023L41.9877 17.2767C41.6874 17.0764 40.7639 15.9528 39.5958 16.6648C39.5846 16.6759 39.262 16.9318 39.1396 17.0208C38.8949 17.1988 38.8949 17.1877 38.6501 17.3434C37.3595 18.189 37.5932 18.545 36.603 18.7008L32.2752 19.2237C31.9414 18.5339 31.9414 17.9776 32.2752 17.2767C31.5186 17.2211 31.9859 17.4547 31.6188 16.954C31.8524 15.9528 32.1194 16.3644 32.1194 14.8624C32.1083 13.9947 32.2084 13.2492 31.908 12.6262C31.374 11.5359 30.1502 10.9351 28.8708 10.6459V9.98947C30.0612 9.72246 30.4395 10.123 30.7843 8.9993C31.3295 7.24146 30.8956 7.45285 31.7856 7.24146C31.7856 6.60731 31.73 6.58506 31.6188 6.10666C32.9649 5.79515 33.7437 5.32787 33.8884 3.51441C32.4087 2.80238 31.8635 3.69242 30.4506 2.42411C28.4702 0.632902 26.323 0.332513 24.6208 2.68C23.7753 3.8593 23.9421 5.01636 23.931 5.10536C23.8754 5.53926 23.842 5.21662 23.6863 5.78402C24.7654 6.30692 24.6542 5.36125 24.3872 7.80887C24.3315 8.35402 24.4984 7.88674 24.0645 8.42077C23.5305 9.07718 23.6418 9.5667 23.3191 9.94497C23.1856 10.1007 22.1732 10.6236 21.9062 10.8016C21.6614 10.6459 21.5835 10.5012 21.3165 10.4345L20.827 10.5124C19.4029 10.835 19.2917 9.34419 16.5548 9.34419L16.1432 10.2231C15.598 11.4358 16.3212 10.7349 15.4756 12.4816C15.2976 12.8487 15.2531 13.0712 15.0974 13.3939C15.509 13.6609 15.7649 13.8389 15.9095 14.3618C14.4076 15.085 14.975 14.4619 14.0071 15.8637C13.4396 16.6759 13.1393 16.4423 11.8598 17.1209C11.8598 17.9331 11.96 18.3892 12.5385 18.5005C13.1281 18.6118 13.1281 17.9887 13.4953 19.2125C14.0293 21.0149 13.3173 19.7243 13.3173 22.4612C13.4174 22.3054 13.384 22.4167 13.473 22.1274C13.4842 22.0829 13.4842 21.9049 13.4842 21.8159H13.9625C14.0071 23.4069 14.3964 25.5986 14.8748 27.0672C15.1975 28.0462 15.9651 30.5939 17.2891 30.4827C25.0324 29.8597 21.6614 28.5468 23.1522 31.9068C23.8531 33.4643 23.2746 33.2084 23.9088 34.0651C25.7445 36.5127 24.8322 37.7588 24.8099 38.66C24.7988 39.3497 25.1993 40.8739 25.0769 41.3523L22.2288 44.6566C21.5613 45.1795 21.3499 45.6245 20.7269 46.2364C18.524 48.4393 18.6909 47.6716 17.0443 48.5394C17.4115 50.1081 18.5574 52.4667 19.3139 53.8797C18.1569 53.8797 17.1111 53.8908 16.1877 53.7684C8.52217 52.7449 7.32061 51.7436 7.32061 57.9294Z" fill="#94B428" stroke="white" stroke-width="0.999996" stroke-linejoin="round"/>
<path d="M41.5093 41.675C41.4092 43.2103 40.8752 44.4675 39.9184 45.4911C38.9616 46.5035 37.6488 46.993 35.9466 46.993C34.6226 46.993 33.3543 46.6926 32.1528 46.0585L31.9191 46.2698C32.0971 46.5814 32.2306 46.904 32.3641 47.2266C33.6213 47.9387 35.101 48.2836 36.7476 48.2836C39.1507 48.2836 41.0309 47.6494 42.3882 46.4033C43.7233 45.1462 44.3908 43.4551 44.3908 41.3524C44.3908 39.4833 43.7011 37.9146 42.3437 36.6685C40.9864 35.4225 39.0728 34.8105 36.6141 34.8105C34.9898 34.8105 33.4322 35.0998 31.9191 35.6783L31.8635 35.823C32.0749 36.3459 32.2084 37.336 32.2863 38.8157H33.0873C33.1318 37.8589 33.1652 37.3138 33.2097 37.2025C33.2208 37.069 33.4211 36.9021 33.7771 36.6463C34.122 36.4015 34.5447 36.2235 35.0565 36.09C35.5572 35.9565 36.0801 35.9008 36.6141 35.9008C38.1383 35.9008 39.3287 36.3459 40.1631 37.2248C40.9864 38.1037 41.4537 39.2274 41.5093 40.6069C40.775 40.6514 40.3411 40.6626 40.1854 40.6626L36.9367 40.6069C36.8811 40.6069 36.514 40.6292 35.8464 40.6514L35.7686 41.3524C35.6907 42.1534 35.6128 42.6318 35.5572 42.8098L36.0801 42.8654L36.692 41.8085C37.315 41.675 38.1939 41.6194 39.351 41.6194C40.0519 41.6194 40.775 41.6416 41.5093 41.675ZM45.8149 48.0833V47.3268C46.5714 47.26 46.9942 47.2044 47.0943 47.171C47.1722 47.1265 47.2056 47.0931 47.2501 47.0597C47.3057 46.9596 47.3614 46.7705 47.3947 46.4812C47.4504 46.0028 47.4949 45.0794 47.5171 43.7443V40.2287C47.5171 39.0939 47.4949 38.1593 47.4504 37.3917C47.4392 36.6463 47.3836 36.2124 47.3168 36.0789C47.2835 36.001 47.2278 35.9454 47.1277 35.8786C46.9942 35.823 46.5603 35.7896 45.8149 35.7451V34.9886C46.9386 35.0219 47.9288 35.0442 48.8188 35.0442C49.8868 35.0442 50.877 35.0219 51.8116 34.9886V35.7451C51.0328 35.8118 50.5766 35.8675 50.4542 35.9565C50.3207 36.0344 50.2429 36.2235 50.2317 36.5573C50.1872 36.9355 50.1761 38.5042 50.1761 41.2634H50.3096C50.9326 40.7627 51.8338 39.9172 53.0242 38.7379C54.2035 37.5252 55.127 36.535 55.7611 35.7451L55.7722 35.4113L55.7611 35.0776L55.8501 34.9886C56.5177 35.0219 57.0962 35.0442 57.5746 35.0442C58.0864 35.0442 58.6426 35.0219 59.2768 34.9886V35.7451L58.7428 35.8118C58.32 35.8452 58.053 35.9008 57.9195 35.9454C57.6747 36.0566 57.3409 36.2902 56.9182 36.6463C56.2951 37.1692 55.5052 37.8701 54.5707 38.7935L52.9019 40.3622L53.7697 41.408C54.7821 42.654 55.9836 44.067 57.3966 45.6357C58.2087 46.5814 58.6871 47.0709 58.854 47.171C58.9653 47.2266 59.2545 47.2823 59.7329 47.3268V48.0833L59.2434 48.0722L57.5746 48.0277C57.1296 48.0277 56.5622 48.0499 55.8501 48.0833C55.3384 47.438 54.4928 46.4033 53.2913 44.9682C52.3901 43.9001 51.5334 42.9433 50.7213 42.0644C50.61 41.942 50.5544 41.8864 50.4987 41.8753C50.4542 41.853 50.4431 41.853 50.3986 41.853C50.3096 41.853 50.2317 41.8864 50.2095 41.9643C50.1872 42.0088 50.1761 42.2535 50.1761 42.7097L50.2095 45.5467C50.2317 46.3811 50.2429 46.8595 50.3096 46.9819C50.343 47.0709 50.4209 47.1265 50.4987 47.171C50.6323 47.2266 51.0662 47.2823 51.8116 47.3268V48.0833C50.8993 48.0499 49.8646 48.0277 48.7409 48.0277C48.1846 48.0277 47.2056 48.0499 45.8149 48.0833ZM67.8879 48.2836C65.585 48.2836 63.8271 47.6828 62.6033 46.5035C61.3795 45.3353 60.7676 43.711 60.7676 41.6416C60.7676 40.1842 61.0791 38.9604 61.6465 37.9479C62.2362 36.9355 63.0595 36.1679 64.1164 35.6116C65.1622 35.0776 66.5306 34.8105 68.1661 34.8105C69.757 34.8105 71.0587 35.0776 72.0711 35.6005C73.0724 36.1122 73.8512 36.8354 74.3853 37.7588C74.9415 38.6711 75.2085 39.8282 75.2085 41.1632C75.2085 42.6207 74.9081 43.8778 74.3074 44.9348C73.7177 46.0028 72.8722 46.8261 71.7819 47.3935C70.6916 47.9943 69.3899 48.2836 67.8879 48.2836ZM68.2328 47.26C69.49 47.26 70.4802 46.8039 71.2256 45.8693C71.9933 44.9459 72.3604 43.5552 72.3604 41.6639C72.3604 39.6947 71.9376 38.1593 71.081 37.1135C70.3912 36.2457 69.3231 35.823 67.8657 35.823C66.5306 35.823 65.4737 36.268 64.7283 37.1692C63.9829 38.0481 63.6157 39.4276 63.6157 41.2745C63.6157 42.5984 63.8271 43.7221 64.2276 44.6455C64.6282 45.5801 65.1511 46.2476 65.7741 46.6481C66.4082 47.0597 67.2315 47.26 68.2328 47.26ZM76.1876 44.4898L76.0541 44.3229C76.2988 43.7666 76.5102 43.1324 76.666 42.3648C77.8342 42.4093 78.7687 42.4204 79.4919 42.4204C80.2595 42.4204 81.1384 42.4093 82.1175 42.3648L82.251 42.5539C82.0174 43.1102 81.806 43.7666 81.5946 44.4898C80.5599 44.4564 79.6254 44.4341 78.8243 44.4341C77.9788 44.4341 77.0999 44.4564 76.1876 44.4898ZM85.5553 48.0833V47.3268C85.9002 47.3268 86.2784 47.2823 86.6456 47.2266C86.8347 47.1933 86.9571 47.1488 87.035 47.0709C87.1017 46.993 87.1685 46.8595 87.2019 46.6704C87.2352 46.4033 87.2797 45.4243 87.3131 43.7221C87.3354 42.5205 87.3354 41.2967 87.3354 40.0395C87.3354 37.5697 87.3354 36.3014 87.3131 36.268C87.302 36.2124 87.0906 36.1901 86.6456 36.1901C85.7889 36.1901 85.0435 36.2124 84.4093 36.268C84.0422 36.2902 83.8531 36.3236 83.7974 36.357C83.7641 36.3792 83.7196 36.4349 83.6862 36.5128C83.6639 36.6129 83.6083 37.1469 83.5304 38.1816H82.7294C82.7405 36.9689 82.7071 35.9231 82.6293 35.0664L82.7294 34.9886C84.6986 35.0776 86.6122 35.1221 88.459 35.1221C90.317 35.1221 92.3863 35.0776 94.6782 34.9886L94.7783 35.1332C94.6671 36.001 94.5892 37.0134 94.5224 38.1816H93.7437C93.688 37.1247 93.6324 36.535 93.5768 36.4571C93.5323 36.3792 93.4321 36.3459 93.2875 36.3014C92.7869 36.2235 91.7967 36.1901 90.317 36.1901C90.1835 36.1901 90.1056 36.2124 90.0945 36.2457C90.0722 36.2902 90.05 36.4571 90.05 36.7464L89.9944 43.0212C89.9944 44.8346 90.0166 45.9694 90.05 46.37C90.0722 46.7816 90.1501 47.0375 90.2614 47.1265C90.3615 47.1933 90.8399 47.2489 91.7299 47.3268V48.0833C90.8176 48.0499 89.8609 48.0277 88.8262 48.0277C87.4911 48.0277 86.4008 48.0499 85.5553 48.0833ZM109.431 35.7451C108.874 35.7451 108.496 35.823 108.285 36.001C108.073 36.1679 107.517 37.4139 106.583 39.7058L103.723 46.8039C102.978 48.762 102.433 50.0191 102.043 50.631C101.676 51.2429 101.265 51.688 100.786 51.955C100.319 52.222 99.7848 52.3555 99.1952 52.3555C98.6834 52.3555 98.2161 52.2554 97.7822 52.0329C97.938 51.421 98.0492 50.8202 98.1049 50.2305L98.3496 50.1526C98.6945 50.5754 99.1618 50.7868 99.7292 50.7868C100.152 50.7868 100.53 50.6088 100.864 50.2862C101.187 49.9413 101.509 49.2737 101.854 48.2836C101.676 47.7829 101.22 46.6926 100.497 45.0238C100.152 44.2005 99.6736 43.0991 99.095 41.7195C98.4498 40.1285 97.8712 38.7712 97.3595 37.6809C96.8254 36.5684 96.5028 35.9787 96.347 35.9231C96.1913 35.8452 95.813 35.8118 95.2011 35.7451V34.9886C96.347 35.0219 97.4373 35.0442 98.472 35.0442C99.3621 35.0442 100.308 35.0219 101.32 34.9886V35.7451C100.63 35.7896 100.208 35.8452 100.052 35.9008C99.8849 35.9787 99.8071 36.0789 99.8071 36.2235C99.8071 36.4349 100.074 37.1803 100.586 38.4486L103.323 44.9348L105.37 39.6947C106.137 37.6809 106.538 36.535 106.538 36.2235C106.538 36.0789 106.46 35.9565 106.316 35.9008C106.171 35.823 105.715 35.7896 104.969 35.7451V34.9886C106.082 35.0219 106.861 35.0219 107.306 35.0219C107.728 35.0219 108.429 35.0219 109.431 34.9886V35.7451ZM110.154 48.0833V47.3268C110.899 47.26 111.322 47.2044 111.422 47.1488C111.489 47.1154 111.556 47.0375 111.589 46.9374C111.645 46.7816 111.689 46.1363 111.723 45.0127C111.745 43.8556 111.767 42.7653 111.767 41.6972C111.767 39.7058 111.745 38.2706 111.7 37.4362C111.667 36.5684 111.589 36.09 111.511 36.001C111.422 35.8786 111.144 35.823 110.688 35.7896L110.154 35.7451V34.9886L111.211 35.0219C111.856 35.0219 112.39 35.0442 112.779 35.0442C113.291 35.0442 114.148 35.0219 115.338 34.9997C115.972 34.9886 116.429 34.9886 116.74 34.9886C117.842 34.9886 118.665 35.0776 119.199 35.2889C119.733 35.5003 120.145 35.823 120.412 36.268C120.69 36.6908 120.823 37.2248 120.823 37.8589C120.823 39.016 120.423 39.9728 119.599 40.7627C118.776 41.5415 117.753 41.9309 116.484 41.9309C116.317 41.9309 116.139 41.9086 115.972 41.8864C115.783 41.8753 115.583 41.8308 115.394 41.7974C115.283 41.5637 115.171 41.3524 115.049 41.141L115.26 40.9185C115.394 40.9296 115.527 40.9741 115.65 40.9963C115.761 40.9963 115.872 41.0075 115.95 41.0075C116.584 41.0075 117.096 40.7961 117.497 40.3622C117.897 39.9172 118.097 39.3053 118.097 38.5265C118.097 37.6476 117.886 36.9911 117.486 36.5684C117.063 36.1345 116.462 35.9231 115.661 35.9231C115.338 35.9231 114.96 35.9565 114.515 36.0566C114.459 37.9924 114.415 39.6168 114.415 40.9518C114.415 41.3969 114.437 42.8321 114.493 45.2574C114.515 46.2142 114.56 46.7705 114.593 46.904C114.615 47.0152 114.693 47.0931 114.76 47.1265C114.893 47.2044 115.438 47.26 116.351 47.3268V48.0833C115.26 48.0499 114.326 48.0277 113.58 48.0277C113.236 48.0277 112.101 48.0499 110.154 48.0833Z" fill="#2B2A29" stroke="#FEFEFE" stroke-width="4.99998" stroke-linejoin="round"/>
<path d="M41.5093 41.675C41.4092 43.2103 40.8752 44.4675 39.9184 45.4911C38.9616 46.5035 37.6488 46.993 35.9466 46.993C34.6226 46.993 33.3543 46.6926 32.1528 46.0585L31.9191 46.2698C32.0971 46.5814 32.2306 46.904 32.3641 47.2266C33.6213 47.9387 35.101 48.2836 36.7476 48.2836C39.1507 48.2836 41.0309 47.6494 42.3882 46.4033C43.7233 45.1462 44.3908 43.4551 44.3908 41.3524C44.3908 39.4833 43.7011 37.9146 42.3437 36.6685C40.9864 35.4225 39.0728 34.8105 36.6141 34.8105C34.9898 34.8105 33.4322 35.0998 31.9191 35.6783L31.8635 35.823C32.0749 36.3459 32.2084 37.336 32.2863 38.8157H33.0873C33.1318 37.8589 33.1652 37.3138 33.2097 37.2025C33.2208 37.069 33.4211 36.9021 33.7771 36.6463C34.122 36.4015 34.5447 36.2235 35.0565 36.09C35.5572 35.9565 36.0801 35.9008 36.6141 35.9008C38.1383 35.9008 39.3287 36.3459 40.1631 37.2248C40.9864 38.1037 41.4537 39.2274 41.5093 40.6069C40.775 40.6514 40.3411 40.6626 40.1854 40.6626L36.9367 40.6069C36.8811 40.6069 36.514 40.6292 35.8464 40.6514L35.7686 41.3524C35.6907 42.1534 35.6128 42.6318 35.5572 42.8098L36.0801 42.8654L36.692 41.8085C37.315 41.675 38.1939 41.6194 39.351 41.6194C40.0519 41.6194 40.775 41.6416 41.5093 41.675ZM45.8149 48.0833V47.3268C46.5714 47.26 46.9942 47.2044 47.0943 47.171C47.1722 47.1265 47.2056 47.0931 47.2501 47.0597C47.3057 46.9596 47.3614 46.7705 47.3947 46.4812C47.4504 46.0028 47.4949 45.0794 47.5171 43.7443V40.2287C47.5171 39.0939 47.4949 38.1593 47.4504 37.3917C47.4392 36.6463 47.3836 36.2124 47.3168 36.0789C47.2835 36.001 47.2278 35.9454 47.1277 35.8786C46.9942 35.823 46.5603 35.7896 45.8149 35.7451V34.9886C46.9386 35.0219 47.9288 35.0442 48.8188 35.0442C49.8868 35.0442 50.877 35.0219 51.8116 34.9886V35.7451C51.0328 35.8118 50.5766 35.8675 50.4542 35.9565C50.3207 36.0344 50.2429 36.2235 50.2317 36.5573C50.1872 36.9355 50.1761 38.5042 50.1761 41.2634H50.3096C50.9326 40.7627 51.8338 39.9172 53.0242 38.7379C54.2035 37.5252 55.127 36.535 55.7611 35.7451L55.7722 35.4113L55.7611 35.0776L55.8501 34.9886C56.5177 35.0219 57.0962 35.0442 57.5746 35.0442C58.0864 35.0442 58.6426 35.0219 59.2768 34.9886V35.7451L58.7428 35.8118C58.32 35.8452 58.053 35.9008 57.9195 35.9454C57.6747 36.0566 57.3409 36.2902 56.9182 36.6463C56.2951 37.1692 55.5052 37.8701 54.5707 38.7935L52.9019 40.3622L53.7697 41.408C54.7821 42.654 55.9836 44.067 57.3966 45.6357C58.2087 46.5814 58.6871 47.0709 58.854 47.171C58.9653 47.2266 59.2545 47.2823 59.7329 47.3268V48.0833L59.2434 48.0722L57.5746 48.0277C57.1296 48.0277 56.5622 48.0499 55.8501 48.0833C55.3384 47.438 54.4928 46.4033 53.2913 44.9682C52.3901 43.9001 51.5334 42.9433 50.7213 42.0644C50.61 41.942 50.5544 41.8864 50.4987 41.8753C50.4542 41.853 50.4431 41.853 50.3986 41.853C50.3096 41.853 50.2317 41.8864 50.2095 41.9643C50.1872 42.0088 50.1761 42.2535 50.1761 42.7097L50.2095 45.5467C50.2317 46.3811 50.2429 46.8595 50.3096 46.9819C50.343 47.0709 50.4209 47.1265 50.4987 47.171C50.6323 47.2266 51.0662 47.2823 51.8116 47.3268V48.0833C50.8993 48.0499 49.8646 48.0277 48.7409 48.0277C48.1846 48.0277 47.2056 48.0499 45.8149 48.0833ZM67.8879 48.2836C65.585 48.2836 63.8271 47.6828 62.6033 46.5035C61.3795 45.3353 60.7676 43.711 60.7676 41.6416C60.7676 40.1842 61.0791 38.9604 61.6465 37.9479C62.2362 36.9355 63.0595 36.1679 64.1164 35.6116C65.1622 35.0776 66.5306 34.8105 68.1661 34.8105C69.757 34.8105 71.0587 35.0776 72.0711 35.6005C73.0724 36.1122 73.8512 36.8354 74.3853 37.7588C74.9415 38.6711 75.2085 39.8282 75.2085 41.1632C75.2085 42.6207 74.9081 43.8778 74.3074 44.9348C73.7177 46.0028 72.8722 46.8261 71.7819 47.3935C70.6916 47.9943 69.3899 48.2836 67.8879 48.2836ZM68.2328 47.26C69.49 47.26 70.4802 46.8039 71.2256 45.8693C71.9933 44.9459 72.3604 43.5552 72.3604 41.6639C72.3604 39.6947 71.9376 38.1593 71.081 37.1135C70.3912 36.2457 69.3231 35.823 67.8657 35.823C66.5306 35.823 65.4737 36.268 64.7283 37.1692C63.9829 38.0481 63.6157 39.4276 63.6157 41.2745C63.6157 42.5984 63.8271 43.7221 64.2276 44.6455C64.6282 45.5801 65.1511 46.2476 65.7741 46.6481C66.4082 47.0597 67.2315 47.26 68.2328 47.26ZM76.1876 44.4898L76.0541 44.3229C76.2988 43.7666 76.5102 43.1324 76.666 42.3648C77.8342 42.4093 78.7687 42.4204 79.4919 42.4204C80.2595 42.4204 81.1384 42.4093 82.1175 42.3648L82.251 42.5539C82.0174 43.1102 81.806 43.7666 81.5946 44.4898C80.5599 44.4564 79.6254 44.4341 78.8243 44.4341C77.9788 44.4341 77.0999 44.4564 76.1876 44.4898ZM85.5553 48.0833V47.3268C85.9002 47.3268 86.2784 47.2823 86.6456 47.2266C86.8347 47.1933 86.9571 47.1488 87.035 47.0709C87.1017 46.993 87.1685 46.8595 87.2019 46.6704C87.2352 46.4033 87.2797 45.4243 87.3131 43.7221C87.3354 42.5205 87.3354 41.2967 87.3354 40.0395C87.3354 37.5697 87.3354 36.3014 87.3131 36.268C87.302 36.2124 87.0906 36.1901 86.6456 36.1901C85.7889 36.1901 85.0435 36.2124 84.4093 36.268C84.0422 36.2902 83.8531 36.3236 83.7974 36.357C83.7641 36.3792 83.7196 36.4349 83.6862 36.5128C83.6639 36.6129 83.6083 37.1469 83.5304 38.1816H82.7294C82.7405 36.9689 82.7071 35.9231 82.6293 35.0664L82.7294 34.9886C84.6986 35.0776 86.6122 35.1221 88.459 35.1221C90.317 35.1221 92.3863 35.0776 94.6782 34.9886L94.7783 35.1332C94.6671 36.001 94.5892 37.0134 94.5224 38.1816H93.7437C93.688 37.1247 93.6324 36.535 93.5768 36.4571C93.5323 36.3792 93.4321 36.3459 93.2875 36.3014C92.7869 36.2235 91.7967 36.1901 90.317 36.1901C90.1835 36.1901 90.1056 36.2124 90.0945 36.2457C90.0722 36.2902 90.05 36.4571 90.05 36.7464L89.9944 43.0212C89.9944 44.8346 90.0166 45.9694 90.05 46.37C90.0722 46.7816 90.1501 47.0375 90.2614 47.1265C90.3615 47.1933 90.8399 47.2489 91.7299 47.3268V48.0833C90.8176 48.0499 89.8609 48.0277 88.8262 48.0277C87.4911 48.0277 86.4008 48.0499 85.5553 48.0833ZM109.431 35.7451C108.874 35.7451 108.496 35.823 108.285 36.001C108.073 36.1679 107.517 37.4139 106.583 39.7058L103.723 46.8039C102.978 48.762 102.433 50.0191 102.043 50.631C101.676 51.2429 101.265 51.688 100.786 51.955C100.319 52.222 99.7848 52.3555 99.1952 52.3555C98.6834 52.3555 98.2161 52.2554 97.7822 52.0329C97.938 51.421 98.0492 50.8202 98.1049 50.2305L98.3496 50.1526C98.6945 50.5754 99.1618 50.7868 99.7292 50.7868C100.152 50.7868 100.53 50.6088 100.864 50.2862C101.187 49.9413 101.509 49.2737 101.854 48.2836C101.676 47.7829 101.22 46.6926 100.497 45.0238C100.152 44.2005 99.6736 43.0991 99.095 41.7195C98.4498 40.1285 97.8712 38.7712 97.3595 37.6809C96.8254 36.5684 96.5028 35.9787 96.347 35.9231C96.1913 35.8452 95.813 35.8118 95.2011 35.7451V34.9886C96.347 35.0219 97.4373 35.0442 98.472 35.0442C99.3621 35.0442 100.308 35.0219 101.32 34.9886V35.7451C100.63 35.7896 100.208 35.8452 100.052 35.9008C99.8849 35.9787 99.8071 36.0789 99.8071 36.2235C99.8071 36.4349 100.074 37.1803 100.586 38.4486L103.323 44.9348L105.37 39.6947C106.137 37.6809 106.538 36.535 106.538 36.2235C106.538 36.0789 106.46 35.9565 106.316 35.9008C106.171 35.823 105.715 35.7896 104.969 35.7451V34.9886C106.082 35.0219 106.861 35.0219 107.306 35.0219C107.728 35.0219 108.429 35.0219 109.431 34.9886V35.7451ZM110.154 48.0833V47.3268C110.899 47.26 111.322 47.2044 111.422 47.1488C111.489 47.1154 111.556 47.0375 111.589 46.9374C111.645 46.7816 111.689 46.1363 111.723 45.0127C111.745 43.8556 111.767 42.7653 111.767 41.6972C111.767 39.7058 111.745 38.2706 111.7 37.4362C111.667 36.5684 111.589 36.09 111.511 36.001C111.422 35.8786 111.144 35.823 110.688 35.7896L110.154 35.7451V34.9886L111.211 35.0219C111.856 35.0219 112.39 35.0442 112.779 35.0442C113.291 35.0442 114.148 35.0219 115.338 34.9997C115.972 34.9886 116.429 34.9886 116.74 34.9886C117.842 34.9886 118.665 35.0776 119.199 35.2889C119.733 35.5003 120.145 35.823 120.412 36.268C120.69 36.6908 120.823 37.2248 120.823 37.8589C120.823 39.016 120.423 39.9728 119.599 40.7627C118.776 41.5415 117.753 41.9309 116.484 41.9309C116.317 41.9309 116.139 41.9086 115.972 41.8864C115.783 41.8753 115.583 41.8308 115.394 41.7974C115.283 41.5637 115.171 41.3524 115.049 41.141L115.26 40.9185C115.394 40.9296 115.527 40.9741 115.65 40.9963C115.761 40.9963 115.872 41.0075 115.95 41.0075C116.584 41.0075 117.096 40.7961 117.497 40.3622C117.897 39.9172 118.097 39.3053 118.097 38.5265C118.097 37.6476 117.886 36.9911 117.486 36.5684C117.063 36.1345 116.462 35.9231 115.661 35.9231C115.338 35.9231 114.96 35.9565 114.515 36.0566C114.459 37.9924 114.415 39.6168 114.415 40.9518C114.415 41.3969 114.437 42.8321 114.493 45.2574C114.515 46.2142 114.56 46.7705 114.593 46.904C114.615 47.0152 114.693 47.0931 114.76 47.1265C114.893 47.2044 115.438 47.26 116.351 47.3268V48.0833C115.26 48.0499 114.326 48.0277 113.58 48.0277C113.236 48.0277 112.101 48.0499 110.154 48.0833Z" fill="#94B428"/>
<defs>
<linearGradient id="paint0_linear_1_36" x1="0" y1="34.3966" x2="117.669" y2="34.3966" gradientUnits="userSpaceOnUse">
<stop stop-color="#23ABDD"/>
<stop offset="1" stop-color="#93B328"/>
</linearGradient>
</defs>
</svg>
