<svg width="20" height="16" viewBox="0 0 20 16" fill="none" xmlns="http://www.w3.org/2000/svg">
<path fill-rule="evenodd" clip-rule="evenodd" d="M1.6707 2.23297L9.8 7.92348L17.9293 2.23297C17.7816 1.86387 17.4189 1.6 17 1.6H2.6C2.18108 1.6 1.81843 1.86387 1.6707 2.23297ZM18 4.13652L10.2588 9.55539C9.98331 9.74821 9.61669 9.74821 9.34123 9.55539L1.6 4.13652V13.4C1.6 13.9482 2.05183 14.4 2.6 14.4H17C17.5482 14.4 18 13.9482 18 13.4V4.13652ZM0 2.6C0 1.16817 1.16817 0 2.6 0H17C18.4318 0 19.6 1.16817 19.6 2.6V13.4C19.6 14.8318 18.4318 16 17 16H2.6C1.16817 16 0 14.8318 0 13.4V2.6Z" fill="#23ABDD"/>
</svg>
