<svg width="19" height="18" viewBox="0 0 19 18" fill="none" xmlns="http://www.w3.org/2000/svg">
<path d="M8.99979 9.61347C11.641 9.61347 13.8267 7.50857 13.8267 4.82694C13.8267 2.14531 11.641 0 8.99979 0C6.35857 0 4.17285 2.1049 4.17285 4.78653C4.17285 7.46816 6.35857 9.61347 8.99979 9.61347ZM8.99979 1.4951C10.8365 1.4951 12.3316 2.9902 12.3316 4.7902C12.3316 6.5902 10.8365 8.08163 8.99979 8.08163C7.16306 8.08163 5.66795 6.58653 5.66795 4.78653C5.66795 2.98653 7.16306 1.4951 8.99979 1.4951Z" fill="#23ABDD"/>
<path d="M12.2547 10.0726C11.9498 9.99549 11.6412 10.0726 11.4502 10.3041L9 13.0996L6.5498 10.3041C6.35878 10.0726 6.01347 9.99916 5.74531 10.0726C2.25918 11.2224 0 14.0547 0 17.2322C0 17.6547 0.345306 18 0.767755 18H17.2359C17.6584 18 18.0037 17.6547 18.0037 17.2322C18 14.0547 15.7408 11.2224 12.2547 10.0726ZM1.56857 16.5049C1.87714 14.4 3.40898 12.6 5.78204 11.6816L8.46367 14.7453C8.73184 15.0906 9.3049 15.0906 9.57306 14.7453L12.2547 11.6816C14.591 12.6 16.1633 14.4367 16.4682 16.5049H1.56857Z" fill="#23ABDD"/>
</svg>
