<svg width="19" height="18" viewBox="0 0 19 18" fill="none" xmlns="http://www.w3.org/2000/svg">
<path d="M17.8096 13.6511C17.1394 12.3842 14.8123 11.0106 14.7098 10.9505C14.4108 10.7803 14.0988 10.6902 13.8068 10.6902C13.3726 10.6902 13.0171 10.8891 12.8019 11.2509C12.4615 11.658 12.0393 12.1339 11.9368 12.2077C11.1439 12.7457 10.5231 12.6846 9.8363 11.9978L6.00302 8.16416C5.32054 7.48167 5.25779 6.85325 5.7921 6.06463C5.86686 5.96151 6.34277 5.539 6.74992 5.19826C7.00957 5.04374 7.18778 4.81413 7.26588 4.53246C7.36967 4.15767 7.29324 3.71681 7.04828 3.28729C6.99055 3.18851 5.61623 0.861036 4.35003 0.19123C4.11375 0.0660795 3.84743 0 3.58044 0C3.14058 0 2.72675 0.17154 2.41571 0.482247L1.56869 1.32893C0.229074 2.66821 -0.255843 4.18637 0.126617 5.84103C0.445668 7.22003 1.37545 8.68746 2.89061 10.2023L7.79818 15.1099C9.71583 17.0275 11.544 18 13.2321 18C13.2321 18 13.2321 18 13.2324 18C14.4739 18 15.6313 17.4724 16.6715 16.4321L17.5182 15.5854C18.0328 15.0711 18.1496 14.2935 17.8096 13.6511Z" fill="#23ABDD"/>
</svg>
