<svg width="33" height="32" viewBox="0 0 33 32" fill="none" xmlns="http://www.w3.org/2000/svg">
<rect x="0.94104" width="32" height="32" rx="16" fill="#2787F5"/>
<path d="M19.7039 7H14.1782C9.13518 7 7.94104 8.19414 7.94104 13.2371V18.7629C7.94104 23.8059 9.13518 25 14.1782 25H19.7039C24.7469 25 25.941 23.8059 25.941 18.7629V13.2371C25.941 8.19414 24.7342 7 19.7039 7ZM22.4731 19.8425H21.1634C20.6679 19.8425 20.5156 19.4488 19.6264 18.5469C18.8514 17.7985 18.5086 17.696 18.3167 17.696C18.0499 17.696 17.9735 17.7708 17.9735 18.1405V19.322C17.9735 19.6397 17.8717 19.8301 17.0335 19.8301C15.6489 19.8301 14.1119 18.9919 13.0319 17.4291C11.4059 15.1427 10.9614 13.4276 10.9614 13.0721C10.9614 12.8816 11.0362 12.7039 11.4059 12.7039H12.7157C13.0462 12.7039 13.173 12.8562 13.2999 13.2121C13.9477 15.0794 15.0277 16.7181 15.4704 16.7181C15.6354 16.7181 15.7117 16.6433 15.7117 16.2227V14.2917C15.6608 13.4025 15.1908 13.3262 15.1908 13.0089C15.1908 12.8565 15.3177 12.7039 15.5212 12.7039H17.5795C17.859 12.7039 17.9604 12.8562 17.9604 13.1866V15.7904C17.9604 16.07 18.0873 16.1714 18.1636 16.1714C18.3286 16.1714 18.4686 16.0696 18.7732 15.765C19.7133 14.7108 20.3865 13.0848 20.3865 13.0848C20.4756 12.8943 20.6279 12.7166 20.9583 12.7166H22.2681C22.6617 12.7166 22.7508 12.9198 22.6617 13.1993C22.4967 13.9616 20.8962 16.2227 20.8962 16.2227C20.7566 16.4513 20.7057 16.5531 20.8962 16.8068C21.0358 16.9973 21.4949 17.391 21.798 17.7469C22.3571 18.383 22.789 18.9156 22.9031 19.2838C23.0322 19.652 22.8414 19.8425 22.4731 19.8425Z" fill="white"/>
</svg>
