<svg width="33" height="32" viewBox="0 0 33 32" fill="none" xmlns="http://www.w3.org/2000/svg">
<rect x="0.94104" width="32" height="32" rx="16" fill="#7AD06D"/>
<path d="M16.5046 7.01041C11.7508 7.23676 7.99941 11.1957 8.01384 15.9549C8.01823 17.4044 8.36817 18.7726 8.98548 19.9815L8.03768 24.5822C7.98641 24.831 8.21087 25.0489 8.45809 24.9904L12.9662 23.9223C14.1245 24.4993 15.4254 24.8325 16.8022 24.8535C21.661 24.9277 25.7124 21.0697 25.8639 16.2127C26.0262 11.0063 21.7292 6.76159 16.5046 7.01041ZM21.8838 20.87C20.5635 22.1903 18.8082 22.9174 16.9411 22.9174C15.8478 22.9174 14.8011 22.6721 13.83 22.1883L13.2022 21.8756L10.4382 22.5304L11.02 19.7062L10.7107 19.1005C10.2066 18.1132 9.95097 17.0455 9.95097 15.9273C9.95097 14.0601 10.6781 12.3048 11.9983 10.9845C13.3068 9.67605 15.0908 8.93712 16.9412 8.93712C18.8083 8.93717 20.5636 9.66425 21.8838 10.9845C23.2041 12.3047 23.9312 14.06 23.9312 15.9271C23.9312 17.7776 23.1922 19.5616 21.8838 20.87Z" fill="white"/>
<path d="M21.2736 17.8632L19.5444 17.3667C19.3171 17.3014 19.0723 17.3659 18.9066 17.5347L18.4837 17.9655C18.3054 18.1472 18.0349 18.2055 17.7989 18.1101C16.9809 17.779 15.2602 16.2491 14.8207 15.4838C14.6939 15.2631 14.7149 14.9871 14.8706 14.7857L15.2398 14.308C15.3844 14.1209 15.4149 13.8696 15.3193 13.6533L14.5917 12.0078C14.4175 11.6137 13.9139 11.499 13.5849 11.7773C13.1022 12.1855 12.5296 12.8057 12.46 13.4929C12.3373 14.7045 12.8569 16.2317 14.8217 18.0656C17.0916 20.1842 18.9094 20.4641 20.0929 20.1774C20.7642 20.0148 21.3007 19.363 21.6393 18.8293C21.8701 18.4654 21.6878 17.9821 21.2736 17.8632Z" fill="white"/>
</svg>
