<svg width="16" height="16" viewBox="0 0 16 16" fill="none" xmlns="http://www.w3.org/2000/svg">
<path d="M1.50715 4.52126C1.64445 4.58992 2.03348 4.79587 2.45848 4.31857C2.62847 4.07992 2.79847 3.84127 3.00116 3.60589C3.23981 3.33455 3.20385 2.89321 2.93251 2.65456C2.66116 2.41591 2.21983 2.45187 1.98118 2.72322C1.74253 2.99456 1.50388 3.30186 1.30119 3.60589C1.10177 3.90993 1.20311 4.3153 1.50715 4.52126Z" fill="#11B9A5"/>
<path d="M8.14024 1.32402C8.78754 1.32402 9.43157 1.42536 10.0462 1.63132C10.4581 1.75228 10.7589 1.49401 10.8962 1.22267C10.9975 0.849986 10.7948 0.47403 10.4548 0.372686C9.70618 0.134036 8.95754 0 8.1762 0C7.80352 0 7.49622 0.271342 7.49622 0.647297C7.49622 1.02325 7.76756 1.32402 8.14024 1.32402Z" fill="#11B9A5"/>
<path d="M14.1947 5.47261C14.4334 6.05126 14.5674 6.66259 14.6361 7.27393C14.6361 7.27393 14.6753 8.03238 15.3847 7.92123C16.0876 7.82969 15.996 7.13989 15.996 7.13989C15.9274 6.39125 15.7247 5.64261 15.4534 4.96262C15.2834 4.62263 14.9107 4.45263 14.5707 4.58994C14.2274 4.75993 14.0574 5.13262 14.1947 5.47261Z" fill="#11B9A5"/>
<path d="M11.7462 2.4813C12.2889 2.85399 12.7662 3.2986 13.1748 3.80859C13.4789 4.18781 13.9921 4.03089 14.0935 3.90993C14.3648 3.67128 14.4335 3.22995 14.1948 2.9586C13.7175 2.37996 13.1389 1.83728 12.4948 1.39267C12.1875 1.18998 11.7822 1.25536 11.5762 1.56267C11.3702 1.86997 11.4389 2.27535 11.7462 2.4813Z" fill="#11B9A5"/>
<path d="M4.40041 2.37669C4.94309 2.03669 5.5577 1.76535 6.16903 1.59535C6.54172 1.49401 6.74768 1.11805 6.64633 0.77806C6.54499 0.405374 6.16903 0.199415 5.82904 0.30076C5.0804 0.503449 4.36772 0.810751 3.72042 1.2194C3.41312 1.42209 3.31177 1.83073 3.51773 2.13804C3.65177 2.34399 3.93945 2.54668 4.40041 2.37669Z" fill="#11B9A5"/>
<path d="M15.3161 8.77119C14.9434 8.66985 14.6034 8.9085 14.5348 9.28118C14.4661 9.58848 14.2569 10.3044 14.2536 10.3731C13.3546 12.7105 11.1969 14.3549 8.71891 14.6197C6.2801 14.8747 3.90668 13.773 2.53036 11.7919L3.78899 12.0698C4.12898 12.1384 4.50167 11.9325 4.57032 11.5598C4.63898 11.2198 4.43302 10.8471 4.06033 10.7785L1.40903 10.1998C1.23903 10.1671 0.709426 10.1998 0.591735 10.7098L0.0130913 13.3971C-0.0555614 13.7371 0.150397 14.1098 0.523083 14.1784C0.938268 14.2209 1.23576 13.9757 1.34038 13.6357L1.54307 12.7138C3.05669 14.7636 5.78972 16.2805 8.85621 15.9503C11.9489 15.6168 14.5707 13.5344 15.5907 10.6117C15.6234 10.5267 15.7771 9.81406 15.8294 9.55579C15.9307 9.17984 15.6921 8.83984 15.3161 8.77119Z" fill="#11B9A5"/>
<path d="M5.38104 8.66985H8.51618C8.88886 8.66985 9.16347 8.36255 9.19617 7.98986V3.34109C9.19617 2.9684 8.88886 2.6611 8.51618 2.6611C8.14349 2.6611 7.83619 2.9684 7.83619 3.34109V7.30987H5.38104C5.00835 7.30987 4.70105 7.61717 4.70105 7.98986C4.70105 8.36255 5.00508 8.66985 5.38104 8.66985Z" fill="#11B9A5"/>
</svg>
