<svg width="32" height="32" viewBox="0 0 32 32" fill="none" xmlns="http://www.w3.org/2000/svg">
<circle cx="16" cy="16" r="16" fill="#37AEE2"/>
<path d="M21.8157 9.00134C21.6089 9.01096 21.4141 9.07107 21.241 9.13839H21.2386C21.0631 9.20812 20.2288 9.55916 18.9617 10.0905C17.6946 10.6243 16.05 11.3168 14.4174 12.0044C11.157 13.3773 7.952 14.7286 7.952 14.7286L7.99047 14.7142C7.99047 14.7142 7.76926 14.7863 7.53844 14.945C7.42063 15.0219 7.29079 15.1277 7.17778 15.2936C7.06478 15.4595 6.97341 15.7144 7.00707 15.9765C7.06237 16.4213 7.3509 16.6882 7.55768 16.8348C7.76686 16.9839 7.96642 17.0536 7.96642 17.0536H7.97123L10.9767 18.0659C11.1114 18.4987 11.8928 21.0665 12.0803 21.658C12.1909 22.0115 12.2991 22.2327 12.4338 22.401C12.4987 22.4875 12.5756 22.5597 12.667 22.6174C12.7031 22.639 12.7415 22.6558 12.78 22.6703C12.792 22.6775 12.804 22.6799 12.8185 22.6823L12.7872 22.6751C12.7968 22.6775 12.804 22.6847 12.8113 22.6871C12.8353 22.6943 12.8521 22.6967 12.8834 22.7015C13.3595 22.8458 13.7418 22.55 13.7418 22.55L13.7634 22.5332L15.5378 20.9175L18.512 23.1992L18.5794 23.2281C19.1997 23.4998 19.8272 23.3483 20.159 23.0814C20.4933 22.8121 20.6231 22.4683 20.6231 22.4683L20.6447 22.413L22.9433 10.6387C23.0082 10.3478 23.0251 10.0761 22.9529 9.81162C22.8808 9.54713 22.6957 9.29948 22.4721 9.16724C22.2461 9.0326 22.0224 8.99172 21.8157 9.00134ZM21.7532 10.2636C21.7508 10.3021 21.758 10.2973 21.7411 10.3718V10.3791L19.4642 22.0307C19.4546 22.0475 19.4377 22.0836 19.3921 22.1197C19.344 22.1581 19.3055 22.1822 19.1059 22.1028L15.4681 19.3137L13.2705 21.3166L13.7321 18.3688C13.7321 18.3688 19.4305 13.0575 19.6758 12.8291C19.921 12.6007 19.8393 12.5526 19.8393 12.5526C19.8561 12.2737 19.469 12.4709 19.469 12.4709L11.9745 17.1137L11.9721 17.1017L8.37998 15.8923V15.8899C8.37757 15.8899 8.37276 15.8875 8.37036 15.8875C8.37276 15.8875 8.38959 15.8803 8.38959 15.8803L8.40883 15.8707L8.42806 15.8634C8.42806 15.8634 11.6355 14.5122 14.8959 13.1393C16.5284 12.4516 18.173 11.7592 19.4377 11.2254C20.7024 10.694 21.6377 10.3045 21.6906 10.2829C21.7411 10.2636 21.7171 10.2636 21.7532 10.2636Z" fill="white"/>
</svg>
