<svg width="32" height="32" viewBox="0 0 32 32" fill="none" xmlns="http://www.w3.org/2000/svg">
<path d="M16 32C24.8366 32 32 24.8366 32 16C32 7.16344 24.8366 0 16 0C7.16344 0 0 7.16344 0 16C0 24.8366 7.16344 32 16 32Z" fill="#2787F5"/>
<path d="M18.4559 8H13.5441C9.06146 8 8 9.06146 8 13.5441V18.4559C8 22.9385 9.06146 24 13.5441 24H18.4559C22.9385 24 24 22.9385 24 18.4559V13.5441C24 9.06146 22.9272 8 18.4559 8ZM20.9174 19.4156H19.7532C19.3128 19.4156 19.1774 19.0656 18.387 18.264C17.6981 17.5987 17.3934 17.5075 17.2228 17.5075C16.9856 17.5075 16.9178 17.5741 16.9178 17.9027V18.9528C16.9178 19.2353 16.8273 19.4046 16.0822 19.4046C14.8514 19.4046 13.4852 18.6595 12.5252 17.2704C11.0799 15.2379 10.6847 13.7134 10.6847 13.3974C10.6847 13.2281 10.7513 13.0701 11.0799 13.0701H12.2442C12.5379 13.0701 12.6506 13.2055 12.7634 13.5218C13.3392 15.1817 14.2992 16.6383 14.6927 16.6383C14.8394 16.6383 14.9073 16.5718 14.9073 16.1979V14.4815C14.862 13.6911 14.4442 13.6233 14.4442 13.3412C14.4442 13.2058 14.557 13.0701 14.738 13.0701H16.5675C16.816 13.0701 16.9061 13.2055 16.9061 13.4992V15.8137C16.9061 16.0622 17.0189 16.1523 17.0867 16.1523C17.2334 16.1523 17.3578 16.0619 17.6286 15.7911C18.4642 14.8541 19.0626 13.4087 19.0626 13.4087C19.1418 13.2394 19.2772 13.0814 19.5709 13.0814H20.7351C21.0851 13.0814 21.1642 13.262 21.0851 13.5105C20.9384 14.1881 19.5157 16.1979 19.5157 16.1979C19.3916 16.4012 19.3464 16.4916 19.5157 16.7172C19.6398 16.8865 20.0479 17.2364 20.3173 17.5528C20.8143 18.1183 21.1982 18.5916 21.2996 18.9189C21.4144 19.2462 21.2447 19.4156 20.9174 19.4156Z" fill="white"/>
</svg>
