<svg width="32" height="32" viewBox="0 0 32 32" fill="none" xmlns="http://www.w3.org/2000/svg">
<circle cx="16" cy="16" r="16" fill="#1BD741"/>
<path d="M8 24.0174L9.12055 20.0375C8.39997 18.8134 8.02058 17.4206 8.02058 15.9897C8.02058 11.5842 11.6048 8 16.0103 8C20.4159 8 24 11.5842 24 15.9897C24 20.3953 20.4159 23.9795 16.0103 23.9795C14.6376 23.9795 13.2934 23.6281 12.1043 22.9609L8 24.0174ZM12.3141 21.5073L12.5587 21.6566C13.5954 22.2896 14.789 22.6241 16.0103 22.6241C19.6685 22.6241 22.6447 19.648 22.6447 15.9897C22.6447 12.3315 19.6685 9.35532 16.0103 9.35532C12.3521 9.35532 9.3759 12.3315 9.3759 15.9897C9.3759 17.2644 9.73818 18.5022 10.4235 19.5693L10.5882 19.8258L9.94288 22.1177L12.3141 21.5073Z" fill="white"/>
<path d="M13.7659 12.2711L13.2475 12.2429C13.0847 12.234 12.9249 12.2884 12.8018 12.3953C12.5505 12.6136 12.1486 13.0355 12.0252 13.5854C11.8411 14.4053 12.1256 15.4092 12.8618 16.4132C13.5981 17.4171 14.9701 19.0234 17.3963 19.7095C18.1781 19.9305 18.7931 19.7815 19.2676 19.478C19.6435 19.2376 19.9025 18.8517 19.9959 18.4155L20.0787 18.0289C20.105 17.906 20.0426 17.7813 19.9284 17.7287L18.1763 16.9211C18.0626 16.8687 17.9277 16.9018 17.8512 17.0009L17.1633 17.8926C17.1114 17.96 17.0224 17.9867 16.9421 17.9585C16.4711 17.7929 14.8932 17.1321 14.0274 15.4643C13.9898 15.392 13.9991 15.3042 14.0524 15.2425L14.7098 14.482C14.7769 14.4044 14.7939 14.2952 14.7536 14.2008L13.9983 12.4338C13.9581 12.3398 13.868 12.2767 13.7659 12.2711Z" fill="white"/>
</svg>
