<svg width="84" height="84" viewBox="0 0 84 84" fill="none" xmlns="http://www.w3.org/2000/svg">
<path d="M10.6783 42.7156C9.1991 26.9734 20.7616 13.0126 36.5038 11.5335L42.4012 10.9794C58.1434 9.50019 72.1041 21.0627 73.5833 36.8049C75.0625 52.5472 63.5 66.5079 47.7577 67.987L41.8604 68.5412C26.1181 70.0203 12.1574 58.4578 10.6783 42.7156Z" fill="#D7E4F0"/>
<path d="M19.2 24.7482L27.8142 16.1339C28.1893 15.7589 28.698 15.5482 29.2284 15.5482H72C73.1046 15.5482 74 16.4436 74 17.5482V71.1482C74 72.2527 73.1046 73.1482 72 73.1482H12C10.8954 73.1482 10 72.2527 10 71.1482V34.7766C10 34.2462 10.2107 33.7374 10.5858 33.3624L19.2 24.7482Z" stroke="#144C7F" stroke-width="4"/>
<path d="M40.4 15.5482V73.1482" stroke="#144C7F" stroke-width="4"/>
<path d="M10 33.9482H26.4C27.5046 33.9482 28.4 33.0527 28.4 31.9482V15.5482" stroke="#144C7F" stroke-width="4"/>
<circle cx="57.2001" cy="33.1482" r="6.4" stroke="#144C7F" stroke-width="4"/>
<path d="M50.8 51.5482H63.6" stroke="#144C7F" stroke-width="4" stroke-linecap="round" stroke-linejoin="round"/>
<path d="M50.8 61.1481H63.6" stroke="#144C7F" stroke-width="4" stroke-linecap="round" stroke-linejoin="round"/>
</svg>
