<svg width="190" height="190" viewBox="0 0 506 512" fill="none" xmlns="http://www.w3.org/2000/svg">
<path d="M504.392 361.131L474.184 276.395C474.079 276.039 473.936 275.696 473.757 275.371L425.203 139.349C422.788 132.558 416.368 128.016 409.16 128H346.013C357.381 110.312 363.587 89.8019 363.933 68.7786C362.864 29.771 330.409 -1.00325 291.4 -8.10631e-05C252.391 -1.00325 219.936 29.771 218.867 68.7786C219.213 89.8019 225.419 110.312 236.787 128H96.9254C89.6865 127.98 83.2224 132.529 80.7974 139.349L18.504 313.856C18.4704 314.196 18.4704 314.539 18.504 314.88L1.60802 361.045C0.794737 363.46 0.532319 366.026 0.840024 368.555V369.237V370.603C2.59285 378.575 9.74589 384.19 17.9067 384H112.541L7.75202 497.664C5.00478 500.633 4.7197 505.123 7.06936 508.416C9.39741 511.695 13.6992 512.904 17.3947 511.317L163.4 449.28L309.405 511.317C310.463 511.747 311.592 511.979 312.733 512C315.51 512.015 318.12 510.678 319.731 508.416C322.08 505.123 321.795 500.633 319.048 497.664L214.259 384H488.349C493.91 383.998 499.121 381.286 502.314 376.734C505.507 372.182 506.283 366.36 504.392 361.131ZM433.139 212.224L413.085 203.691L427.763 197.376L433.139 212.224ZM291.4 17.0666C320.968 16.1065 345.755 39.2161 346.867 68.7786C346.867 116.224 305.48 151.637 291.4 162.645C277.32 151.979 235.933 116.565 235.933 68.7786C237.045 39.2161 261.832 16.1065 291.4 17.0666V17.0666ZM287.133 179.968C289.941 181.769 293.541 181.769 296.349 179.968C310.441 170.154 323.08 158.405 333.896 145.067H404.979L290.803 194.304L176.712 145.067H248.904C259.929 158.453 272.801 170.205 287.133 179.968ZM133.533 145.067L287.133 211.456C289.31 212.406 291.784 212.406 293.96 211.456L414.365 159.573L422.045 181.163L387.912 195.755C384.765 197.095 382.723 200.185 382.723 203.605C382.723 207.026 384.765 210.115 387.912 211.456L440.733 234.24L451.315 263.68L344.733 217.6C342.581 216.675 340.144 216.675 337.992 217.6L211.699 271.957C208.552 273.298 206.51 276.388 206.51 279.808C206.51 283.228 208.552 286.318 211.699 287.659L395.336 366.933H337.736L168.179 293.717C166.002 292.767 163.528 292.767 161.352 293.717L22.6 353.792L32.84 324.267L92.5734 298.667C95.7201 297.326 97.7623 294.236 97.7623 290.816C97.7623 287.396 95.7201 284.306 92.5734 282.965L53.6614 266.155L61.4267 244.565L136.008 276.821C138.184 277.771 140.658 277.771 142.835 276.821L243.784 233.301C246.931 231.961 248.973 228.871 248.973 225.451C248.973 222.03 246.931 218.94 243.784 217.6L94.1094 153.003L96.9254 145.067H133.533ZM48.2 282.283L67.656 290.816L40.8614 302.165L48.2 282.283ZM88.648 169.045L218.867 225.451L139.421 259.584L67.144 228.437L88.648 169.045ZM166.984 432.213C164.857 431.312 162.455 431.312 160.328 432.213L47.176 480.171L137.971 381.525L163.571 354.048L189.171 381.525L279.624 480.171L166.984 432.213ZM169.971 335.531C168.353 333.751 166.061 332.737 163.656 332.737C161.252 332.737 158.959 333.751 157.341 335.531L128.243 366.933H35.0587L164.765 310.869L294.643 366.933H198.557L169.971 335.531ZM438.429 366.933L236.616 279.808L341.32 234.752L459.421 285.952L488.349 366.933H438.429Z" fill="black"/>
<path d="M329.8 72.5333C329.8 51.3256 312.608 34.1333 291.4 34.1333C270.192 34.1333 253 51.3256 253 72.5333C253 93.741 270.192 110.933 291.4 110.933C312.588 110.886 329.753 93.7216 329.8 72.5333ZM270.067 72.5333C270.067 60.7512 279.618 51.2 291.4 51.2C303.182 51.2 312.733 60.7512 312.733 72.5333C312.733 84.3154 303.182 93.8666 291.4 93.8666C279.618 93.8666 270.067 84.3154 270.067 72.5333Z" fill="black"/>
</svg>
