<svg width="36" height="36" viewBox="0 0 36 36" fill="none" xmlns="http://www.w3.org/2000/svg">
<g filter="url(#filter0_d_20_85)">
<path d="M10.3892 28.5027L10.9081 28.7622C13.0703 30.0595 15.4919 30.6649 17.9135 30.6649C25.5243 30.6649 31.7514 24.4378 31.7514 16.827C31.7514 13.1946 30.2811 9.64866 27.6865 7.05406C25.0919 4.45947 21.6324 2.9892 17.9135 2.9892C10.3027 2.9892 4.07569 9.21622 4.16218 16.9135C4.16218 19.5081 4.94055 22.0162 6.23785 24.1784L6.5838 24.6973L5.20001 29.8L10.3892 28.5027Z" fill="#00E676"/>
<path d="M29.1568 5.67027C26.2162 2.64324 22.1514 1 18 1C9.17838 1 2.08649 8.17838 2.17297 16.9135C2.17297 19.6811 2.95135 22.3622 4.24865 24.7838L2 33L10.3892 30.8378C12.7243 32.1351 15.3189 32.7405 17.9135 32.7405C26.6487 32.7405 33.7405 25.5622 33.7405 16.827C33.7405 12.5892 32.0973 8.61081 29.1568 5.67027ZM18 30.0595C15.6649 30.0595 13.3297 29.4541 11.3405 28.2432L10.8216 27.9838L5.80541 29.2811L7.1027 24.3514L6.75676 23.8324C2.95135 17.6919 4.76757 9.56216 10.9946 5.75676C17.2216 1.95135 25.2649 3.76757 29.0703 9.99459C32.8757 16.2216 31.0595 24.2649 24.8324 28.0703C22.8432 29.3676 20.4216 30.0595 18 30.0595ZM25.6108 20.4595L24.6595 20.027C24.6595 20.027 23.2757 19.4216 22.4108 18.9892C22.3243 18.9892 22.2378 18.9027 22.1514 18.9027C21.8919 18.9027 21.7189 18.9892 21.5459 19.0757C21.5459 19.0757 21.4595 19.1622 20.2486 20.5459C20.1622 20.7189 19.9892 20.8054 19.8162 20.8054H19.7297C19.6432 20.8054 19.4703 20.7189 19.3838 20.6324L18.9514 20.4595C18 20.027 17.1351 19.5081 16.4432 18.8162C16.2703 18.6432 16.0108 18.4703 15.8378 18.2973C15.2324 17.6919 14.627 17 14.1946 16.2216L14.1081 16.0486C14.0216 15.9622 14.0216 15.8757 13.9351 15.7027C13.9351 15.5297 13.9351 15.3568 14.0216 15.2703C14.0216 15.2703 14.3676 14.8378 14.627 14.5784C14.8 14.4054 14.8865 14.1459 15.0595 13.973C15.2324 13.7135 15.3189 13.3676 15.2324 13.1081C15.1459 12.6757 14.1081 10.3405 13.8486 9.82162C13.6757 9.56216 13.5027 9.47568 13.2432 9.38919H12.9838C12.8108 9.38919 12.5514 9.38919 12.2919 9.38919C12.1189 9.38919 11.9459 9.47568 11.773 9.47568L11.6865 9.56216C11.5135 9.64865 11.3405 9.82162 11.1676 9.90811C10.9946 10.0811 10.9081 10.2541 10.7351 10.427C10.1297 11.2054 9.78378 12.1568 9.78378 13.1081C9.78378 13.8 9.95676 14.4919 10.2162 15.0973L10.3027 15.3568C11.0811 17 12.1189 18.4703 13.5027 19.7676L13.8486 20.1135C14.1081 20.373 14.3676 20.5459 14.5405 20.8054C16.3568 22.3622 18.4324 23.4865 20.7676 24.0919C21.027 24.1784 21.373 24.1784 21.6324 24.2649C21.8919 24.2649 22.2378 24.2649 22.4973 24.2649C22.9297 24.2649 23.4487 24.0919 23.7946 23.9189C24.0541 23.7459 24.227 23.7459 24.4 23.573L24.573 23.4C24.7459 23.227 24.9189 23.1405 25.0919 22.9676C25.2649 22.7946 25.4378 22.6216 25.5243 22.4486C25.6973 22.1027 25.7838 21.6703 25.8703 21.2378C25.8703 21.0649 25.8703 20.8054 25.8703 20.6324C25.8703 20.6324 25.7838 20.5459 25.6108 20.4595Z" fill="#00E676"/>
<path d="M24.6595 20.027L25.6108 20.4594C25.7838 20.5459 25.8703 20.6324 25.8703 20.6324V21.2378C25.7838 21.6702 25.6973 22.1027 25.5243 22.4486C25.4378 22.6216 25.2649 22.7946 25.0919 22.9675C24.9189 23.1405 24.7459 23.227 24.573 23.4L24.4 23.5729C24.227 23.7459 24.0541 23.7459 23.7946 23.9189C23.4486 24.0919 22.9297 24.2648 22.4973 24.2648H21.6324C21.373 24.1783 21.027 24.1784 20.7676 24.0919C18.4324 23.4865 16.3568 22.3621 14.5405 20.8054C14.3676 20.5459 14.1081 20.3729 13.8486 20.1135L13.5027 19.7675C12.1189 18.4702 11.0811 17 10.3027 15.3567L10.2162 15.0973C9.95676 14.4919 9.78378 13.8 9.78378 13.1081C9.78378 12.1567 10.1297 11.2054 10.7351 10.427C10.9081 10.254 10.9946 10.0811 11.1676 9.90808C11.3405 9.82159 11.5135 9.64862 11.6865 9.56213L11.773 9.47565C11.9459 9.47565 12.1189 9.38916 12.2919 9.38916H12.9838H13.2432C13.5027 9.47565 13.6757 9.56213 13.8486 9.82159C14.1081 10.3405 15.1459 12.6756 15.2324 13.1081C15.3189 13.3675 15.2324 13.7135 15.0595 13.9729C14.8865 14.1459 14.8 14.4054 14.627 14.5784C14.3676 14.8378 14.0216 15.2702 14.0216 15.2702C13.9351 15.3567 13.9351 15.5297 13.9351 15.7027C14.0216 15.8756 14.0216 15.9621 14.1081 16.0486L14.1946 16.2216C14.627 17 15.2324 17.6919 15.8378 18.2973C16.0108 18.4702 16.2703 18.6432 16.4432 18.8162C17.1351 19.5081 18 20.027 18.9514 20.4594L19.3838 20.6324C19.4703 20.7189 19.6432 20.8054 19.7297 20.8054H19.8162C19.9892 20.8054 20.1622 20.7189 20.2486 20.5459C21.4595 19.1621 21.5459 19.0756 21.5459 19.0756C21.7189 18.9892 21.8919 18.9027 22.1514 18.9027C22.2378 18.9027 22.3243 18.9892 22.4108 18.9892C23.2757 19.4216 24.6595 20.027 24.6595 20.027Z" fill="white"/>
</g>
<defs>
<filter id="filter0_d_20_85" x="0" y="0" width="35.7405" height="36" filterUnits="userSpaceOnUse" color-interpolation-filters="sRGB">
<feFlood flood-opacity="0" result="BackgroundImageFix"/>
<feColorMatrix in="SourceAlpha" type="matrix" values="0 0 0 0 0 0 0 0 0 0 0 0 0 0 0 0 0 0 127 0" result="hardAlpha"/>
<feOffset dy="1"/>
<feGaussianBlur stdDeviation="1"/>
<feComposite in2="hardAlpha" operator="out"/>
<feColorMatrix type="matrix" values="0 0 0 0 0 0 0 0 0 0 0 0 0 0 0 0 0 0 0.15 0"/>
<feBlend mode="normal" in2="BackgroundImageFix" result="effect1_dropShadow_20_85"/>
<feBlend mode="normal" in="SourceGraphic" in2="effect1_dropShadow_20_85" result="shape"/>
</filter>
</defs>
</svg>
