<svg width="639" height="537" viewBox="0 0 639 537" fill="none" xmlns="http://www.w3.org/2000/svg">
<path d="M243.639 105.833C352.7 135.056 439.605 205.727 491.925 296.356C544.252 386.981 562.002 497.578 532.779 606.639C503.555 715.706 432.886 802.605 342.257 854.925C251.632 907.252 141.034 925.002 31.9733 895.779C-77.0934 866.555 -163.993 795.886 -216.313 705.257C-268.64 614.632 -286.392 504.04 -257.167 394.973C-227.944 285.912 -157.273 199.007 -66.6444 146.687C23.9805 94.3604 134.572 76.6084 243.639 105.833ZM441.489 325.475C396.623 247.76 322.099 187.158 228.564 162.095C135.028 137.032 40.1866 152.253 -37.5255 197.123C-115.24 241.989 -175.842 316.513 -200.905 410.049C-225.968 503.584 -210.747 598.426 -165.877 676.138C-121.011 753.852 -46.4869 814.455 47.0486 839.517C140.584 864.58 235.426 849.359 313.138 804.489C390.852 759.623 451.455 685.099 476.517 591.564C501.58 498.028 486.359 403.187 441.489 325.475Z" fill="#D7E4F0"/>
<path fill-rule="evenodd" clip-rule="evenodd" d="M90.8038 591.78C104.813 595.534 118.862 599.298 132.908 603.062L117.239 670.586C109.671 668.051 101.987 665.73 94.175 663.637C86.3208 661.532 78.4565 659.69 70.5951 658.097L90.8038 591.78ZM236.993 736.168L249.369 508.816C252.342 454.187 254.758 409.69 256.784 372.707C245.731 369.745 234.653 366.777 223.623 363.821C212.593 360.866 201.515 357.897 190.484 354.942C188.755 362.396 186.961 370.128 185.103 378.142C176.096 375.729 167.088 373.315 158.106 370.908C160.504 363.039 162.819 355.446 165.046 348.126C153.993 345.164 142.915 342.196 131.885 339.24C120.855 336.285 109.777 333.316 98.7465 330.361C82.006 363.401 61.8643 403.103 37.0957 451.938L-65.9386 655.067C-88.6185 658.647 -110.814 664.236 -132.288 671.688L2.89107 442.773C31.1704 394.879 54.1731 355.943 73.2822 323.538C68.1511 322.163 63.02 320.788 57.9114 319.419C35.6207 354.168 8.32576 396.621 -25.7425 449.657L-182.01 692.921L-182.017 692.925L-196.358 715.253L-200.118 721.108L-203.911 727.014L-207.743 732.976L-211.606 738.99L-205.609 740.597L-166.985 750.946C-94.7957 710.293 -7.25689 696.76 79.0997 719.899C165.456 743.038 234.5 798.527 276.691 869.829L315.315 880.178L321.313 881.785L320.974 874.645L320.639 867.567L320.305 860.555L319.976 853.604L318.72 827.097L318.716 827.09L305.013 538.331C302.024 475.32 299.625 424.907 297.689 383.667C292.51 382.28 287.379 380.905 282.248 379.53C282.591 417.147 283.036 462.411 283.574 517.981L286.13 783.676C271.258 766.509 254.838 750.589 236.993 736.168ZM153.327 386.594C162.667 389.096 172.031 391.605 181.396 394.115C177.109 412.588 172.428 432.774 167.29 454.906C156.564 452.032 145.835 449.157 135.139 446.291C141.762 424.557 147.8 404.735 153.327 386.594ZM128.307 468.705C139.515 471.708 150.756 474.72 161.994 477.731C155.763 504.587 148.819 534.496 141.085 567.83C127.827 564.277 114.568 560.725 101.347 557.182C111.321 524.448 120.273 495.077 128.307 468.705Z" fill="#D7E4F0"/>
</svg>
