<svg width="628" height="632" viewBox="0 0 628 632" fill="none" xmlns="http://www.w3.org/2000/svg">
<path d="M526.944 91.9294C621.678 117.313 697.166 178.7 742.613 257.423C788.065 336.143 803.484 432.211 778.1 526.944C752.715 621.683 691.33 697.166 612.606 742.613C533.887 788.065 437.819 803.484 343.085 778.1C248.347 752.715 172.864 691.33 127.417 612.607C81.9642 533.887 66.5443 437.824 91.9294 343.085C117.313 248.352 178.7 172.864 257.423 127.417C336.143 81.9642 432.206 66.5443 526.944 91.9294ZM698.803 282.717C659.831 215.212 595.097 162.571 513.849 140.8C432.602 119.03 350.22 132.252 282.717 171.227C215.212 210.199 162.571 274.933 140.8 356.18C119.03 437.428 132.252 519.81 171.227 587.313C210.199 654.818 274.933 707.459 356.18 729.229C437.428 751 519.81 737.778 587.313 698.803C654.818 659.831 707.459 595.097 729.229 513.849C751 432.602 737.778 350.22 698.803 282.717Z" fill="#D7E4F0"/>
<path fill-rule="evenodd" clip-rule="evenodd" d="M394.187 514.037C406.356 517.298 418.559 520.568 430.76 523.837L417.149 582.49C410.576 580.289 403.901 578.273 397.116 576.455C390.293 574.627 383.462 573.027 376.633 571.642L394.187 514.037ZM521.172 639.457L531.922 441.973C534.504 394.52 536.603 355.869 538.362 323.744C528.761 321.172 519.139 318.593 509.558 316.026C499.977 313.459 490.354 310.88 480.773 308.313C479.271 314.788 477.712 321.505 476.098 328.465C468.274 326.369 460.45 324.273 452.648 322.182C454.731 315.347 456.741 308.751 458.676 302.392C449.075 299.82 439.453 297.241 429.871 294.674C420.29 292.107 410.668 289.528 401.087 286.961C386.545 315.661 369.05 350.147 347.535 392.567L258.036 569.011C238.336 572.121 219.056 576.975 200.403 583.448L317.824 384.605C342.388 343.003 362.369 309.183 378.967 281.034C374.51 279.84 370.053 278.646 365.616 277.457C346.254 307.641 322.544 344.517 292.952 390.586L157.213 601.891L157.207 601.895L144.75 621.29L141.484 626.375L138.189 631.506L134.861 636.685L131.505 641.909L136.714 643.305L170.264 652.294C232.97 616.981 309.009 605.226 384.021 625.325C459.033 645.425 519.006 693.624 555.655 755.559L589.205 764.549L594.414 765.945L594.12 759.743L593.829 753.594L593.539 747.503L593.253 741.466L592.162 718.441L592.159 718.435L580.255 467.61C577.659 412.877 575.575 369.087 573.894 333.265C569.395 332.059 564.938 330.865 560.481 329.671C560.78 362.347 561.166 401.664 561.633 449.934L563.853 680.724C550.935 665.813 536.672 651.984 521.172 639.457ZM448.497 335.807C456.609 337.98 464.744 340.16 472.878 342.34C469.155 358.386 465.088 375.92 460.626 395.145C451.308 392.648 441.989 390.151 432.698 387.662C438.451 368.783 443.696 351.565 448.497 335.807ZM426.764 407.131C436.499 409.739 446.263 412.356 456.025 414.971C450.613 438.299 444.581 464.279 437.863 493.234C426.346 490.148 414.83 487.062 403.345 483.985C412.009 455.551 419.785 430.039 426.764 407.131Z" fill="#D7E4F0"/>
</svg>
