<svg width="26" height="18" viewBox="0 0 26 18" fill="none" xmlns="http://www.w3.org/2000/svg">
<path d="M13.0739 4.31032C12.4337 4.31032 11.8223 4.43718 11.2396 4.6909C10.6569 4.94462 10.1563 5.28019 9.73769 5.6976C9.31913 6.11501 8.98264 6.61426 8.72822 7.19537C8.4738 7.77647 8.34659 8.38621 8.34659 9.02461C8.34659 9.663 8.4738 10.2768 8.72822 10.8661C8.98264 11.4554 9.31913 11.9588 9.73769 12.3762C10.1563 12.7936 10.6569 13.1251 11.2396 13.3706C11.8223 13.6161 12.4337 13.7389 13.0739 13.7389C13.9438 13.7389 14.7399 13.5302 15.4621 13.1128C16.1843 12.6954 16.7547 12.1265 17.1733 11.4063C17.5919 10.6861 17.8011 9.89217 17.8011 9.02461C17.8011 7.73145 17.3415 6.62245 16.4223 5.6976C15.5032 4.77275 14.387 4.31032 13.0739 4.31032ZM13.0739 12.1675C12.5158 12.1675 11.9905 12.0242 11.4981 11.7378C11.0057 11.4513 10.6158 11.0666 10.3286 10.5838C10.0414 10.1009 9.89773 9.57297 9.89773 9.00005C9.89773 8.57446 9.9798 8.16932 10.1439 7.78465C10.3081 7.39998 10.5338 7.06441 10.821 6.77796C11.1083 6.4915 11.4448 6.26642 11.8305 6.10273C12.2162 5.93904 12.6225 5.8572 13.0492 5.8572C13.9192 5.8572 14.6619 6.16412 15.2775 6.77796C15.893 7.39179 16.2008 8.13249 16.2008 9.00005C16.2008 9.86761 15.8971 10.6124 15.2898 11.2344C14.6825 11.8565 13.9438 12.1675 13.0739 12.1675ZM25.6061 8.82818C25.6061 8.81181 25.602 8.79135 25.5938 8.76679C25.5855 8.74224 25.5814 8.72178 25.5814 8.70541C25.5814 8.68904 25.5773 8.67676 25.5691 8.66858L25.5568 8.6563V8.63175L25.5322 8.58264C24.416 6.0127 22.7254 3.99522 20.4602 2.53019C18.1951 1.06516 15.7247 0.332642 13.0492 0.332642C11.2929 0.332642 9.60227 0.651838 7.97727 1.29023C6.35227 1.92862 4.87911 2.87394 3.55777 4.12617C2.23643 5.3784 1.19823 6.86389 0.443184 8.58264V8.64403L0.418562 8.68086V8.75452L0.393941 8.80363C0.377527 8.90184 0.36932 8.9755 0.36932 9.02461C0.36932 9.05735 0.373423 9.09008 0.381631 9.12282C0.389838 9.15556 0.393941 9.1883 0.393941 9.22104C0.393941 9.2374 0.402148 9.26196 0.418562 9.2947V9.3438L0.430873 9.38063L0.443184 9.39291V9.46657C1.57576 12.0365 3.27873 14.0458 5.55209 15.4945C7.82544 16.9431 10.3081 17.6675 13 17.6675C14.7563 17.6675 16.4429 17.3524 18.0597 16.7222C19.6765 16.0919 21.1414 15.1548 22.4545 13.9108C23.7677 12.6667 24.7936 11.1853 25.5322 9.46657C25.5486 9.46657 25.5568 9.45839 25.5568 9.44202V9.40519L25.5691 9.38063L25.5814 9.36836V9.2947L25.6061 9.24559C25.6225 9.14738 25.6307 9.07371 25.6307 9.02461C25.6307 8.99187 25.6266 8.95913 25.6184 8.92639C25.6102 8.89365 25.6061 8.86092 25.6061 8.82818ZM13 16.096C10.6692 16.096 8.51073 15.4863 6.52462 14.2668C4.53851 13.0473 3.02841 11.2999 1.99432 9.02461C3.02841 6.74931 4.54672 4.99373 6.54924 3.75787C8.55177 2.522 10.7184 1.90407 13.0492 1.90407C14.5593 1.90407 16.0079 2.16598 17.3949 2.68978C18.7819 3.21359 20.0581 4.01977 21.2235 5.10831C22.3889 6.19685 23.3163 7.50229 24.0057 9.02461C22.9716 11.2999 21.4615 13.0473 19.4754 14.2668C17.4893 15.4863 15.3308 16.096 13 16.096Z" fill="white"/>
</svg>
