<svg width="50" height="50" viewBox="0 0 50 50" fill="none" xmlns="http://www.w3.org/2000/svg">
<path d="M25 30.127C27.8315 30.127 30.127 27.8315 30.127 25C30.127 22.1685 27.8315 19.873 25 19.873C22.1685 19.873 19.873 22.1685 19.873 25C19.873 27.8315 22.1685 30.127 25 30.127Z" fill="#009D3F"/>
<path d="M25 0.585938C11.5165 0.585938 0.585938 11.5165 0.585938 25C0.585938 38.4835 11.5165 49.4141 25 49.4141C38.4835 49.4141 49.4141 38.4835 49.4141 25C49.4141 11.5165 38.4835 0.585938 25 0.585938ZM40.0838 31.2051C39.9666 33.5262 39.3144 35.815 37.6229 37.4886C35.9149 39.178 33.6152 39.8075 31.2718 39.9235H18.7283C16.3846 39.8075 14.0852 39.1784 12.3772 37.4886C10.6856 35.815 10.0335 33.5262 9.91631 31.2051V18.7949C10.0335 16.4738 10.6857 14.185 12.3772 12.5113C14.0852 10.8219 16.3849 10.1924 18.7283 10.0765H31.2717C33.6154 10.1924 35.9148 10.8216 37.6228 12.5113C39.3144 14.185 39.9665 16.4738 40.0837 18.7949L40.0838 31.2051Z" fill="#009D3F"/>
<path d="M31.1133 12.9041C28.058 12.8203 21.9428 12.8203 18.8875 12.9041C17.2976 12.9478 15.4951 13.3436 14.3623 14.5535C13.1852 15.8112 12.7403 17.3308 12.6952 19.0307C12.6159 22.0143 12.6952 30.9693 12.6952 30.9693C12.7469 32.6691 13.1852 34.1888 14.3623 35.4465C15.4951 36.6568 17.2976 37.0523 18.8875 37.0959C21.9428 37.1797 28.058 37.1797 31.1133 37.0959C32.7032 37.0523 34.5057 36.6565 35.6385 35.4465C36.8156 34.1888 37.2604 32.6693 37.3056 30.9693V19.0307C37.2604 17.3308 36.8156 15.8112 35.6385 14.5535C34.5053 13.3432 32.7028 12.9478 31.1133 12.9041ZM25 32.9468C23.4283 32.9468 21.8918 32.4807 20.585 31.6075C19.2782 30.7343 18.2596 29.4932 17.6581 28.0411C17.0567 26.589 16.8993 24.9912 17.2059 23.4497C17.5125 21.9081 18.2694 20.4922 19.3808 19.3808C20.4922 18.2694 21.9081 17.5126 23.4497 17.2059C24.9912 16.8993 26.589 17.0567 28.0411 17.6581C29.4932 18.2596 30.7343 19.2782 31.6075 20.585C32.4807 21.8919 32.9468 23.4283 32.9468 25C32.9468 27.1076 32.1095 29.1289 30.6192 30.6192C29.1289 32.1095 27.1076 32.9468 25 32.9468ZM32.9806 18.6936C32.6662 18.6935 32.359 18.6002 32.0977 18.4255C31.8364 18.2508 31.6327 18.0026 31.5125 17.7122C31.3922 17.4217 31.3608 17.1022 31.4222 16.7939C31.4836 16.4856 31.635 16.2025 31.8573 15.9802C32.0795 15.758 32.3627 15.6067 32.671 15.5454C32.9793 15.4841 33.2989 15.5156 33.5893 15.6359C33.8797 15.7562 34.1279 15.9599 34.3025 16.2212C34.4771 16.4826 34.5703 16.7899 34.5703 17.1042C34.5703 17.313 34.5292 17.5197 34.4493 17.7125C34.3694 17.9054 34.2523 18.0806 34.1047 18.2282C33.957 18.3758 33.7818 18.4928 33.5889 18.5727C33.396 18.6525 33.1893 18.6936 32.9806 18.6936Z" fill="#009D3F"/>
</svg>
