<svg width="144" height="29" viewBox="0 0 144 29" fill="none" xmlns="http://www.w3.org/2000/svg">
<path d="M8.208 17.432L6.936 18.848V23H1.368V6.2H6.936V12.296L12.456 6.2H18.624L11.904 13.592L18.96 23H12.408L8.208 17.432ZM36.7106 6.2L29.6066 23H24.0386L16.9346 6.2H23.0306L27.0386 16.016L31.1426 6.2H36.7106ZM48.1129 20.072H41.7289L40.6009 23H34.8409L42.1849 6.2H47.7529L55.0969 23H49.2409L48.1129 20.072ZM46.5529 15.992L44.9209 11.768L43.2889 15.992H46.5529ZM56.0008 6.2H64.2808C66.1528 6.2 67.8008 6.544 69.2248 7.232C70.6648 7.904 71.7768 8.872 72.5608 10.136C73.3608 11.4 73.7608 12.888 73.7608 14.6C73.7608 16.312 73.3608 17.8 72.5608 19.064C71.7768 20.328 70.6648 21.304 69.2248 21.992C67.8008 22.664 66.1528 23 64.2808 23H56.0008V6.2ZM64.0408 18.584C65.2568 18.584 66.2248 18.24 66.9448 17.552C67.6808 16.848 68.0488 15.864 68.0488 14.6C68.0488 13.336 67.6808 12.36 66.9448 11.672C66.2248 10.968 65.2568 10.616 64.0408 10.616H61.6648V18.584H64.0408ZM83.0289 18.776H81.4929V23H75.8289V6.2H83.9169C85.4689 6.2 86.8209 6.456 87.9729 6.968C89.1249 7.48 90.0129 8.216 90.6369 9.176C91.2609 10.136 91.5729 11.256 91.5729 12.536C91.5729 13.736 91.3009 14.784 90.7569 15.68C90.2129 16.576 89.4289 17.288 88.4049 17.816L91.9329 23H85.8849L83.0289 18.776ZM85.8609 12.536C85.8609 11.912 85.6689 11.432 85.2849 11.096C84.9009 10.744 84.3249 10.568 83.5569 10.568H81.4929V14.504H83.5569C84.3249 14.504 84.9009 14.336 85.2849 14C85.6689 13.648 85.8609 13.16 85.8609 12.536ZM102.52 23.384C100.712 23.384 99.0878 23.008 97.6478 22.256C96.2078 21.504 95.0798 20.464 94.2638 19.136C93.4478 17.792 93.0398 16.28 93.0398 14.6C93.0398 12.92 93.4478 11.416 94.2638 10.088C95.0798 8.744 96.2078 7.696 97.6478 6.944C99.0878 6.192 100.712 5.816 102.52 5.816C104.328 5.816 105.952 6.192 107.392 6.944C108.832 7.696 109.96 8.744 110.776 10.088C111.592 11.416 112 12.92 112 14.6C112 16.28 111.592 17.792 110.776 19.136C109.96 20.464 108.832 21.504 107.392 22.256C105.952 23.008 104.328 23.384 102.52 23.384ZM102.52 18.8C103.224 18.8 103.856 18.632 104.416 18.296C104.992 17.944 105.448 17.456 105.784 16.832C106.12 16.192 106.288 15.448 106.288 14.6C106.288 13.752 106.12 13.016 105.784 12.392C105.448 11.752 104.992 11.264 104.416 10.928C103.856 10.576 103.224 10.4 102.52 10.4C101.816 10.4 101.176 10.576 100.6 10.928C100.04 11.264 99.5918 11.752 99.2558 12.392C98.9198 13.016 98.7518 13.752 98.7518 14.6C98.7518 15.448 98.9198 16.192 99.2558 16.832C99.5918 17.456 100.04 17.944 100.6 18.296C101.176 18.632 101.816 18.8 102.52 18.8Z" fill="white"/>
<path d="M127.136 18.608V23H113.672V19.52L119.744 13.904C120.272 13.408 120.624 12.984 120.8 12.632C120.976 12.28 121.064 11.936 121.064 11.6C121.064 11.184 120.92 10.864 120.632 10.64C120.36 10.4 119.96 10.28 119.432 10.28C118.92 10.28 118.44 10.416 117.992 10.688C117.544 10.96 117.2 11.344 116.96 11.84L112.688 9.704C113.328 8.504 114.264 7.56 115.496 6.872C116.728 6.168 118.216 5.816 119.96 5.816C121.288 5.816 122.464 6.032 123.488 6.464C124.512 6.896 125.312 7.512 125.888 8.312C126.464 9.112 126.752 10.032 126.752 11.072C126.752 12 126.552 12.872 126.152 13.688C125.768 14.488 125.008 15.4 123.872 16.424L121.472 18.608H127.136ZM137.418 12.128C138.442 12.128 139.394 12.352 140.274 12.8C141.154 13.248 141.858 13.88 142.386 14.696C142.914 15.512 143.178 16.448 143.178 17.504C143.178 18.672 142.874 19.704 142.266 20.6C141.674 21.496 140.858 22.184 139.818 22.664C138.778 23.144 137.626 23.384 136.362 23.384C134.746 23.384 133.33 23.072 132.114 22.448C130.914 21.824 129.978 20.896 129.306 19.664C128.634 18.432 128.298 16.92 128.298 15.128C128.298 13.208 128.682 11.544 129.45 10.136C130.234 8.728 131.322 7.656 132.714 6.92C134.122 6.184 135.754 5.816 137.61 5.816C138.618 5.816 139.578 5.936 140.49 6.176C141.402 6.4 142.178 6.72 142.818 7.136L140.778 11.096C139.946 10.504 138.93 10.208 137.73 10.208C136.754 10.208 135.946 10.456 135.306 10.952C134.682 11.432 134.274 12.136 134.082 13.064C134.962 12.44 136.074 12.128 137.418 12.128ZM135.978 19.472C136.49 19.472 136.906 19.32 137.226 19.016C137.546 18.712 137.706 18.296 137.706 17.768C137.706 17.24 137.546 16.824 137.226 16.52C136.906 16.2 136.49 16.04 135.978 16.04C135.466 16.04 135.05 16.2 134.73 16.52C134.41 16.824 134.25 17.24 134.25 17.768C134.25 18.296 134.41 18.712 134.73 19.016C135.05 19.32 135.466 19.472 135.978 19.472Z" fill="#009D3F"/>
</svg>
